<?xml version="1.0" encoding="utf-8"?>
<!-- Generator: Adobe Illustrator 16.0.0, SVG Export Plug-In . SVG Version: 6.00 Build 0)  -->
<!DOCTYPE svg PUBLIC "-//W3C//DTD SVG 1.1//EN" "http://www.w3.org/Graphics/SVG/1.1/DTD/svg11.dtd">
<svg version="1.1" id="Warstwa_1" xmlns="http://www.w3.org/2000/svg" xmlns:xlink="http://www.w3.org/1999/xlink" x="0px" y="0px"
	 width="35px" height="35px" viewBox="0 0 35 35" enable-background="new 0 0 35 35" xml:space="preserve">
<g>
	<circle fill="#231F20" cx="17.5" cy="17.5" r="17.5"/>
	<circle fill="#FFFFFF" cx="12.995" cy="11.147" r="2.127"/>
	<g>
		<path fill="#FFFFFF" d="M17.532,15.586l0.171-0.968c0,0,1.074-0.726,2.486-0.363c0.013,0.003-0.034,0.395,0,0.702l3.785-0.814
			c0-1.592-2.122-4.181-3.708-4.188c-0.86-0.004-3.063,0.111-3.528,0.507c-1.135,0.966-1.123,4.369-1.137,4.581L17.532,15.586z"/>
		<path fill="#FFFFFF" d="M24.17,14.957l-3.98,0.866c0.104,1.057,0.614,2.236,0.786,2.877l3.147-0.424L24.17,14.957z"/>
		<path fill="#FFFFFF" d="M21.032,19.697c0.072,1.365,0.133,2.435,0.133,2.435l-5.855,0.659l1.71-4.529l0.321-1.739l-1.857-0.507
			c-0.093,1.239-0.142,2.236-0.142,2.236l-0.727,3.796l-0.542,0.103l-3.649,2.281h1.425c1.02-0.176,2.069-0.471,3.073-0.363
			c2.05,0.221,5.2,0.516,7.124,0.27c1.552-0.199,1.96-4.758,2.01-5.039L21.032,19.697z"/>
	</g>
</g>
</svg>
