<?xml version="1.0" encoding="utf-8"?>
<!-- Generator: Adobe Illustrator 16.0.0, SVG Export Plug-In . SVG Version: 6.00 Build 0)  -->
<!DOCTYPE svg PUBLIC "-//W3C//DTD SVG 1.1//EN" "http://www.w3.org/Graphics/SVG/1.1/DTD/svg11.dtd">
<svg version="1.1" id="Warstwa_1" xmlns="http://www.w3.org/2000/svg" xmlns:xlink="http://www.w3.org/1999/xlink" x="0px" y="0px"
	 width="70px" height="70px" viewBox="0 0 70 70" enable-background="new 0 0 70 70" xml:space="preserve">
<g>
	<path fill="#00047A" d="M35,0C15.67,0,0,15.67,0,35s15.67,35,35,35s35-15.67,35-35S54.33,0,35,0z M35,12.628
		c2.35,0,4.255,1.904,4.255,4.254S37.35,21.137,35,21.137s-4.255-1.905-4.255-4.255S32.65,12.628,35,12.628z M29.092,25.051
		c0.556-0.467,3.744-2.173,5.746-2.173c1.848,0,5.188,1.706,5.744,2.173c1.631,1.374,2.792,4.293,3.635,6.923l-2.702,2.084
		c-0.438-1.278-0.763-2.303-0.763-2.303s-0.824,1.291-0.918,3.95c-0.082,2.366,0.149,4.317,0.452,5.656l-10.819-0.377
		c0.262-1.316,0.447-3.124,0.372-5.279c-0.093-2.659-0.917-3.95-0.917-3.95s-0.314,0.992-0.742,2.24l-2.654-2.232
		C26.361,29.188,27.504,26.389,29.092,25.051z M50.947,52.263c-2.104,0.582-11.77-1.475-11.77-1.475s-0.814-1.004,0.914-2.184
		c0.109-0.076-0.187-0.204-0.483-0.204c-1.731,0-11.53,2.597-11.53,2.597s-7.249,1.848-9.352,1.266
		c-2.102-0.58-4.365-3.684-0.513-5.284c0,0,4.912-8.659,5.657-9.974c0.252-0.444,0.579-1.658,1.021-3.172l2.578,2.17
		c-0.347,0.938-0.698,1.822-0.984,2.394c-1.329,2.652-3.475,4.641-5.851,7.847c4.512-0.983,7.084-2.01,8.03-2.956
		c0.064-0.063,0.136-0.177,0.21-0.328l12.102,0.421l0.005-0.128c0.009,0.012,0.018,0.026,0.027,0.035
		c0.946,0.946,3.52,1.973,8.031,2.956c-2.376-3.206-4.522-5.194-5.851-7.847c-0.283-0.565-0.63-1.437-0.973-2.363l2.618-2.02
		c0.415,1.428,0.727,2.565,0.97,2.991c0.743,1.314,5.656,9.974,5.656,9.974C55.313,48.579,53.049,51.683,50.947,52.263z"/>
	<g>
		<path fill="#FFFFFF" d="M51.461,46.979c0,0-4.913-8.659-5.656-9.974c-0.243-0.426-0.555-1.563-0.97-2.991l-2.618,2.02
			c0.343,0.927,0.689,1.798,0.973,2.363c1.328,2.652,3.475,4.641,5.851,7.847c-4.512-0.983-7.085-2.01-8.031-2.956
			c-0.01-0.009-0.019-0.023-0.027-0.035l-0.005,0.128l-12.102-0.421c-0.074,0.151-0.146,0.265-0.21,0.328
			c-0.946,0.946-3.519,1.973-8.03,2.956c2.376-3.206,4.521-5.194,5.851-7.847c0.286-0.571,0.638-1.456,0.984-2.394l-2.578-2.17
			c-0.441,1.514-0.769,2.728-1.021,3.172c-0.745,1.314-5.657,9.974-5.657,9.974c-3.853,1.601-1.589,4.704,0.513,5.284
			c2.103,0.582,9.352-1.266,9.352-1.266s9.799-2.597,11.53-2.597c0.297,0,0.593,0.128,0.483,0.204
			c-1.729,1.18-0.914,2.184-0.914,2.184s9.666,2.057,11.77,1.475C53.049,51.683,55.313,48.579,51.461,46.979z"/>
		<path fill="#FFFFFF" d="M28.922,31.755c0,0,0.824,1.291,0.917,3.95c0.075,2.155-0.11,3.963-0.372,5.279l10.819,0.377
			c-0.303-1.339-0.534-3.29-0.452-5.656c0.094-2.659,0.918-3.95,0.918-3.95s0.325,1.024,0.763,2.303l2.702-2.084
			c-0.843-2.63-2.004-5.549-3.635-6.923c-0.556-0.467-3.896-2.173-5.744-2.173c-2.002,0-5.19,1.706-5.746,2.173
			c-1.588,1.338-2.73,4.138-3.566,6.712l2.654,2.232C28.607,32.747,28.922,31.755,28.922,31.755z"/>
		<circle fill="#FFFFFF" cx="35" cy="16.882" r="4.254"/>
	</g>
</g>
</svg>
