<?xml version="1.0" encoding="utf-8"?>
<!-- Generator: Adobe Illustrator 16.0.0, SVG Export Plug-In . SVG Version: 6.00 Build 0)  -->
<!DOCTYPE svg PUBLIC "-//W3C//DTD SVG 1.1//EN" "http://www.w3.org/Graphics/SVG/1.1/DTD/svg11.dtd">
<svg version="1.1" id="Warstwa_1" xmlns="http://www.w3.org/2000/svg" xmlns:xlink="http://www.w3.org/1999/xlink" x="0px" y="0px"
	 width="35px" height="35px" viewBox="0 0 35 35" enable-background="new 0 0 35 35" xml:space="preserve">
<g>
	<circle fill="#231F20" cx="17.5" cy="17.5" r="17.5"/>
	<g>
		<rect x="11.177" y="10.715" fill="#231F20" width="13.134" height="13.569"/>
		<polygon fill="#FFFFFF" points="18.747,22.153 14.089,17.495 15.71,15.874 18.747,18.911 25.955,11.703 27.576,13.324 		"/>
		<path fill="none" d="M12.271,11.811v11.38h10.944v-4.427l-0.664,0.665c-0.02-0.08-0.045-0.157-0.068-0.235
			c0.033-0.271,0.047-0.543,0.039-0.815l0.693-0.693v-3.243l-0.979,0.979c-0.079-0.269-0.18-0.529-0.303-0.779l1.281-1.281v-1.55
			H12.271z"/>
		<polygon fill="none" points="25.94,14.959 25.955,11.703 25.405,12.253 25.405,15.494 		"/>
		<polygon fill="#FFFFFF" points="25.405,15.494 25.405,12.253 23.216,14.441 23.216,17.685 		"/>
		<path fill="#FFFFFF" d="M23.216,23.19H12.271v-11.38h10.944v1.55l2.189-2.189v-0.457c0-0.604-0.49-1.094-1.095-1.094H11.177
			c-0.604,0-1.095,0.49-1.095,1.094v13.569c0,0.605,0.49,1.095,1.095,1.095h13.134c0.604,0,1.095-0.489,1.095-1.095v-7.709
			l-2.189,2.188V23.19z"/>
	</g>
</g>
</svg>
