<?xml version="1.0" encoding="utf-8"?>
<!-- Generator: Adobe Illustrator 16.0.0, SVG Export Plug-In . SVG Version: 6.00 Build 0)  -->
<!DOCTYPE svg PUBLIC "-//W3C//DTD SVG 1.1//EN" "http://www.w3.org/Graphics/SVG/1.1/DTD/svg11.dtd">
<svg version="1.1" id="Warstwa_1" xmlns="http://www.w3.org/2000/svg" xmlns:xlink="http://www.w3.org/1999/xlink" x="0px" y="0px"
	 width="70px" height="70px" viewBox="0 0 70 70" enable-background="new 0 0 70 70" xml:space="preserve">
<path fill="#4400CF" d="M35,0C15.67,0,0,15.67,0,35s15.67,35,35,35s35-15.67,35-35S54.33,0,35,0z M43.233,47.741
	c-1.842-0.001-3.439-0.335-4.703-0.729c2.944-0.926,7.135-3.073,10.099-8.079c0.85-1.435,1.477-2.915,1.945-4.384
	c1.001-0.129,2.022-0.218,3.087-0.218c3.094,0,5.74,0.559,7.182,0.938c-1.288,2.438-4.925,8.345-11.137,11.078
	C47.608,47.272,45.431,47.741,43.233,47.741z M16.339,34.332c1.065,0,2.087,0.089,3.087,0.218c0.47,1.469,1.096,2.948,1.945,4.383
	c2.966,5.011,7.162,7.158,10.107,8.084c-1.261,0.392-2.859,0.725-4.712,0.725c-2.197,0-4.375-0.469-6.473-1.393
	c-6.213-2.733-9.85-8.642-11.138-11.08C10.594,34.889,13.233,34.332,16.339,34.332z M20.614,22.348
	c1.607,0.614,4.664,1.973,7.576,4.333c-0.595,1.957-0.988,4.102-0.988,6.384c0,5.435,2.192,9.276,4.162,11.634
	c-2.509-0.938-5.786-2.869-8.147-6.858C19.759,32,20.24,25.082,20.614,22.348z M29.348,33.064c0-6.786,3.939-12.493,5.653-14.655
	c1.715,2.157,5.651,7.851,5.651,14.655c0,6.982-4.082,10.968-5.648,12.239C33.454,44.027,29.348,39.997,29.348,33.064z
	 M41.811,26.685c2.911-2.354,5.967-3.718,7.575-4.333c0.374,2.733,0.855,9.65-2.603,15.489c-2.389,4.034-5.67,5.963-8.174,6.887
	c1.976-2.353,4.188-6.205,4.188-11.663C42.798,30.785,42.404,28.641,41.811,26.685z"/>
<path fill="#FFFFFF" d="M60.843,35.271c-1.441-0.38-4.088-0.938-7.182-0.938c-1.064,0-2.086,0.089-3.087,0.218
	c-0.469,1.469-1.096,2.949-1.945,4.384c-2.964,5.006-7.154,7.153-10.099,8.079c1.264,0.394,2.861,0.728,4.703,0.729
	c2.197,0,4.375-0.469,6.473-1.393C55.918,43.615,59.555,37.709,60.843,35.271z"/>
<path fill="#FFFFFF" d="M46.783,37.841c3.458-5.839,2.977-12.756,2.603-15.489c-1.608,0.615-4.664,1.979-7.575,4.333
	c0.594,1.956,0.987,4.101,0.987,6.38c0,5.458-2.213,9.311-4.188,11.663C41.113,43.804,44.395,41.875,46.783,37.841z"/>
<path fill="#FFFFFF" d="M20.294,46.349c2.098,0.924,4.275,1.393,6.473,1.393c1.853,0,3.451-0.333,4.712-0.725
	c-2.945-0.926-7.142-3.073-10.107-8.084c-0.85-1.435-1.476-2.914-1.945-4.383c-1-0.129-2.021-0.218-3.087-0.218
	c-3.105,0-5.745,0.557-7.183,0.937C10.444,37.707,14.081,43.615,20.294,46.349z"/>
<path fill="#FFFFFF" d="M31.364,44.698c-1.97-2.357-4.162-6.199-4.162-11.634c0-2.282,0.394-4.427,0.988-6.384
	c-2.912-2.36-5.969-3.719-7.576-4.333C20.24,25.082,19.759,32,23.217,37.84C25.578,41.829,28.855,43.761,31.364,44.698z"/>
<path fill="#FFFFFF" d="M40.652,33.064c0-6.805-3.937-12.498-5.651-14.655c-1.714,2.162-5.653,7.869-5.653,14.655
	c0,6.933,4.106,10.963,5.656,12.239C36.57,44.032,40.652,40.047,40.652,33.064z"/>
</svg>
