<?xml version="1.0" encoding="utf-8"?>
<!-- Generator: Adobe Illustrator 16.0.0, SVG Export Plug-In . SVG Version: 6.00 Build 0)  -->
<!DOCTYPE svg PUBLIC "-//W3C//DTD SVG 1.1//EN" "http://www.w3.org/Graphics/SVG/1.1/DTD/svg11.dtd">
<svg version="1.1" id="Warstwa_1" xmlns="http://www.w3.org/2000/svg" xmlns:xlink="http://www.w3.org/1999/xlink" x="0px" y="0px"
	 width="35px" height="35px" viewBox="0 0 35 35" enable-background="new 0 0 35 35" xml:space="preserve">
<g>
	<path fill="#231F20" d="M17.5,0C7.835,0,0,7.835,0,17.5S7.835,35,17.5,35S35,27.165,35,17.5S27.165,0,17.5,0z M17.5,6.314
		c1.175,0,2.127,0.952,2.127,2.127c0,1.174-0.952,2.127-2.127,2.127s-2.127-0.953-2.127-2.127C15.373,7.267,16.325,6.314,17.5,6.314
		z M14.547,12.525c0.277-0.233,1.47-0.945,2.872-0.945c1.295,0,2.595,0.711,2.872,0.945c0.872,0.734,1.475,2.349,1.901,3.729
		l-1.366,1.054c-0.253-0.687-0.45-1.265-0.45-1.265s-0.412,0.48-0.459,1.81c-0.041,1.184,0.075,2.158,0.227,2.828l-5.41-0.188
		c0.131-0.659,0.224-1.563,0.187-2.64c-0.047-1.329-0.459-1.81-0.459-1.81s-0.19,0.56-0.438,1.23l-1.345-1.131
		C13.104,14.789,13.698,13.24,14.547,12.525z M25.474,26.132c-1.052,0.291-5.885-0.738-5.885-0.738s-0.407-0.502,0.457-1.092
		c0.055-0.038-0.093-0.102-0.241-0.102c-0.866,0-5.765,1.299-5.765,1.299s-3.625,0.924-4.676,0.633
		c-1.052-0.291-2.184-1.843-0.257-2.643c0,0,2.455-4.33,2.828-4.987c0.11-0.195,0.251-0.688,0.433-1.318l1.28,1.077
		c-0.145,0.363-0.286,0.699-0.406,0.937c-0.664,1.327-1.737,2.321-2.925,3.924c2.256-0.491,3.542-1.004,4.016-1.478
		c0.032-0.032,0.067-0.089,0.105-0.165l6.05,0.211l0.002-0.063c0.005,0.005,0.01,0.013,0.014,0.018
		c0.474,0.474,1.76,0.986,4.016,1.478c-1.188-1.603-2.261-2.597-2.925-3.924c-0.117-0.233-0.256-0.562-0.398-0.917l1.3-1.002
		c0.169,0.585,0.301,1.038,0.405,1.224c0.373,0.657,2.829,4.987,2.829,4.987C27.656,24.289,26.524,25.841,25.474,26.132z"/>
	<path fill="#FFFFFF" d="M14.023,17.273c0.247-0.671,0.438-1.23,0.438-1.23s0.412,0.48,0.459,1.81
		c0.037,1.077-0.056,1.98-0.187,2.64l5.41,0.188c-0.151-0.67-0.268-1.645-0.227-2.828c0.047-1.329,0.459-1.81,0.459-1.81
		s0.197,0.578,0.45,1.265l1.366-1.054c-0.427-1.38-1.029-2.994-1.901-3.729c-0.277-0.233-1.577-0.945-2.872-0.945
		c-1.402,0-2.595,0.711-2.872,0.945c-0.849,0.715-1.443,2.264-1.868,3.617L14.023,17.273z M16.159,13.601
		c0.894,0,1.341,1.118,1.341,1.118s0.447-1.118,1.341-1.118c0.8,0,1.197,0.751,1.197,1.354c0,1.305-2.538,3.044-2.538,3.044
		s-2.537-1.739-2.537-3.044C14.963,14.353,15.36,13.601,16.159,13.601z"/>
	<path fill="#FFFFFF" d="M25.73,23.489c0,0-2.456-4.33-2.829-4.987c-0.104-0.186-0.236-0.639-0.405-1.224l-1.3,1.002
		c0.143,0.355,0.281,0.684,0.398,0.917c0.664,1.327,1.737,2.321,2.925,3.924c-2.256-0.491-3.542-1.004-4.016-1.478
		c-0.004-0.005-0.009-0.013-0.014-0.018l-0.002,0.063l-6.05-0.211c-0.038,0.076-0.073,0.133-0.105,0.165
		c-0.474,0.474-1.76,0.986-4.016,1.478c1.188-1.603,2.261-2.597,2.925-3.924c0.12-0.237,0.262-0.573,0.406-0.937l-1.28-1.077
		c-0.182,0.63-0.322,1.123-0.433,1.318c-0.373,0.657-2.828,4.987-2.828,4.987c-1.927,0.8-0.795,2.352,0.257,2.643
		c1.051,0.291,4.676-0.633,4.676-0.633s4.898-1.299,5.765-1.299c0.148,0,0.296,0.063,0.241,0.102
		c-0.864,0.59-0.457,1.092-0.457,1.092s4.833,1.029,5.885,0.738C26.524,25.841,27.656,24.289,25.73,23.489z"/>
	<circle fill="#FFFFFF" cx="17.5" cy="8.441" r="2.127"/>
	<path fill="#231F20" d="M17.5,17.999c0,0,2.538-1.739,2.538-3.044c0-0.603-0.397-1.354-1.197-1.354
		c-0.894,0-1.341,1.118-1.341,1.118s-0.447-1.118-1.341-1.118c-0.799,0-1.196,0.751-1.196,1.354
		C14.963,16.26,17.5,17.999,17.5,17.999z"/>
</g>
</svg>
