<?xml version="1.0" encoding="utf-8"?>
<!-- Generator: Adobe Illustrator 16.0.0, SVG Export Plug-In . SVG Version: 6.00 Build 0)  -->
<!DOCTYPE svg PUBLIC "-//W3C//DTD SVG 1.1//EN" "http://www.w3.org/Graphics/SVG/1.1/DTD/svg11.dtd">
<svg version="1.1" id="Warstwa_1" xmlns="http://www.w3.org/2000/svg" xmlns:xlink="http://www.w3.org/1999/xlink" x="0px" y="0px"
	 width="35px" height="35px" viewBox="0 0 35 35" enable-background="new 0 0 35 35" xml:space="preserve">
<path d="M17.5,23.421c-0.251,0-0.5-0.007-0.744-0.021c-2.428-0.138-4.463-0.943-5.558-2.101v0.95c0,1.759,2.885,3.244,6.302,3.244
	c3.416,0,6.302-1.485,6.302-3.244V21.3c-1.097,1.157-3.131,1.963-5.558,2.101C17.999,23.414,17.751,23.421,17.5,23.421z"/>
<path d="M17.5,19.475c-0.251,0-0.5-0.006-0.744-0.021c-2.428-0.137-4.463-0.942-5.558-2.099v0.95c0,1.647,2.537,3.056,5.668,3.227
	c0.209,0.01,0.419,0.017,0.633,0.017c0.213,0,0.424-0.007,0.634-0.017c3.131-0.171,5.668-1.579,5.668-3.227v-0.95
	c-1.097,1.156-3.131,1.962-5.558,2.099C17.999,19.469,17.751,19.475,17.5,19.475z"/>
<path d="M11.198,13.41v0.95c0,1.648,2.537,3.057,5.668,3.226c0.209,0.012,0.419,0.017,0.633,0.017c0.213,0,0.424-0.005,0.634-0.017
	c3.131-0.169,5.668-1.578,5.668-3.226v-0.95c-1.207,1.273-3.55,2.121-6.302,2.121S12.404,14.683,11.198,13.41z"/>
<path d="M17.5,13.657c3.416,0,6.302-1.485,6.302-3.243c0-1.759-2.886-3.244-6.302-3.244c-3.417,0-6.302,1.485-6.302,3.244
	C11.198,12.172,14.083,13.657,17.5,13.657z"/>
</svg>
