<?xml version="1.0" encoding="utf-8"?>
<!-- Generator: Adobe Illustrator 16.0.0, SVG Export Plug-In . SVG Version: 6.00 Build 0)  -->
<!DOCTYPE svg PUBLIC "-//W3C//DTD SVG 1.1//EN" "http://www.w3.org/Graphics/SVG/1.1/DTD/svg11.dtd">
<svg version="1.1" id="Warstwa_1" xmlns="http://www.w3.org/2000/svg" xmlns:xlink="http://www.w3.org/1999/xlink" x="0px" y="0px"
	 width="35px" height="35px" viewBox="0 0 35 35" enable-background="new 0 0 35 35" xml:space="preserve">
<g>
	<path fill="#231F20" d="M17.5,0C7.834,0,0,7.835,0,17.5S7.834,35,17.5,35C27.165,35,35,27.165,35,17.5S27.165,0,17.5,0z
		 M22.299,21.196c0,1.34-2.197,2.471-4.799,2.471s-4.799-1.131-4.799-2.471v-0.724c0.834,0.882,2.384,1.495,4.232,1.6
		c0.186,0.011,0.375,0.016,0.566,0.016s0.38-0.005,0.566-0.016c1.849-0.104,3.397-0.718,4.232-1.6V21.196z M22.299,18.954
		c0,1.255-1.932,2.327-4.316,2.457c-0.159,0.008-0.32,0.013-0.482,0.013c-0.163,0-0.323-0.005-0.482-0.013
		c-2.385-0.13-4.316-1.202-4.316-2.457V18.23c0.834,0.881,2.384,1.494,4.232,1.599c0.186,0.011,0.375,0.016,0.566,0.016
		s0.38-0.005,0.566-0.016c1.849-0.104,3.397-0.718,4.232-1.599V18.954z M22.299,16.711c0,1.255-1.932,2.328-4.316,2.457
		c-0.159,0.009-0.32,0.013-0.482,0.013c-0.163,0-0.323-0.004-0.482-0.013c-2.385-0.129-4.316-1.202-4.316-2.457v-0.724
		c0.918,0.97,2.703,1.615,4.799,1.615s3.88-0.646,4.799-1.615V16.711z M17.5,11.998c2.602,0,4.799,1.131,4.799,2.47
		c0,1.339-2.197,2.47-4.799,2.47s-4.799-1.131-4.799-2.47C12.701,13.128,14.898,11.998,17.5,11.998z"/>
	<path fill="#FFFFFF" d="M17.5,22.088c-0.191,0-0.381-0.005-0.566-0.016c-1.849-0.104-3.398-0.718-4.232-1.6v0.724
		c0,1.34,2.197,2.471,4.799,2.471s4.799-1.131,4.799-2.471v-0.724c-0.835,0.882-2.384,1.495-4.232,1.6
		C17.88,22.083,17.691,22.088,17.5,22.088z"/>
	<path fill="#FFFFFF" d="M17.5,19.845c-0.191,0-0.381-0.005-0.566-0.016c-1.849-0.104-3.398-0.718-4.232-1.599v0.724
		c0,1.255,1.932,2.327,4.316,2.457c0.159,0.008,0.319,0.013,0.482,0.013c0.162,0,0.323-0.005,0.482-0.013
		c2.385-0.13,4.316-1.202,4.316-2.457V18.23c-0.835,0.881-2.384,1.494-4.232,1.599C17.88,19.84,17.691,19.845,17.5,19.845z"/>
	<path fill="#FFFFFF" d="M12.701,15.987v0.724c0,1.255,1.932,2.328,4.316,2.457c0.159,0.009,0.319,0.013,0.482,0.013
		c0.162,0,0.323-0.004,0.482-0.013c2.385-0.129,4.316-1.202,4.316-2.457v-0.724c-0.919,0.97-2.703,1.615-4.799,1.615
		S13.619,16.957,12.701,15.987z"/>
	<path fill="#FFFFFF" d="M17.5,16.938c2.602,0,4.799-1.131,4.799-2.47c0-1.339-2.197-2.47-4.799-2.47s-4.799,1.131-4.799,2.47
		C12.701,15.807,14.898,16.938,17.5,16.938z"/>
</g>
</svg>
