<?xml version="1.0" encoding="utf-8"?>
<!-- Generator: Adobe Illustrator 16.0.0, SVG Export Plug-In . SVG Version: 6.00 Build 0)  -->
<!DOCTYPE svg PUBLIC "-//W3C//DTD SVG 1.1//EN" "http://www.w3.org/Graphics/SVG/1.1/DTD/svg11.dtd">
<svg version="1.1" id="Warstwa_1" xmlns="http://www.w3.org/2000/svg" xmlns:xlink="http://www.w3.org/1999/xlink" x="0px" y="0px"
	 width="35px" height="35px" viewBox="0 0 35 35" enable-background="new 0 0 35 35" xml:space="preserve">
<polygon points="18.078,23.239 12.547,17.709 14.472,15.783 18.078,19.39 26.637,10.831 28.562,12.755 "/>
<path d="M25.053,17.88c-0.199,3.827-3.365,6.88-7.24,6.88c-4.003,0-7.26-3.257-7.26-7.26s3.257-7.26,7.26-7.26
	c2.241,0,4.247,1.021,5.58,2.623l1.413-1.414c-1.699-1.961-4.201-3.209-6.993-3.209c-5.106,0-9.26,4.154-9.26,9.26
	s4.154,9.26,9.26,9.26c5.105,0,9.26-4.154,9.26-9.26c0-0.514-0.053-1.015-0.134-1.506L25.053,17.88z"/>
</svg>
