<?xml version="1.0" encoding="utf-8"?>
<!-- Generator: Adobe Illustrator 16.0.0, SVG Export Plug-In . SVG Version: 6.00 Build 0)  -->
<!DOCTYPE svg PUBLIC "-//W3C//DTD SVG 1.1//EN" "http://www.w3.org/Graphics/SVG/1.1/DTD/svg11.dtd">
<svg version="1.1" id="Warstwa_1" xmlns="http://www.w3.org/2000/svg" xmlns:xlink="http://www.w3.org/1999/xlink" x="0px" y="0px"
	 width="35px" height="35px" viewBox="0 0 35 35" enable-background="new 0 0 35 35" xml:space="preserve">
<g>
	<g>
		<circle fill="#231F20" cx="17.5" cy="17.5" r="17.5"/>
	</g>
	<g>
		<path fill="#FFFFFF" d="M12.719,13.109v-1.324c-1.021,0.123-1.983,0.237-2.636,0.302c-2.489,0.246-4.301,0.572-4.301,0.572
			l0.25,0.616C6.031,13.275,9.97,13.054,12.719,13.109z"/>
		<path fill="#FFFFFF" d="M13.399,23.386c-2.959,3.326-8.398,8.075-8.398,8.075l0.607,0.514c0,0,5.779-3.644,10.683-7.235
			L13.399,23.386z"/>
		<path fill="#FFFFFF" d="M24.049,20.999l-1.685,2.51c0.978,0.262,1.843,0.583,2.388,0.897c0.305,2.467,0.497,7.37,0.497,7.37h0.67
			c0,0,1.503-8.344,0.51-9.602C25.851,21.68,24.955,21.296,24.049,20.999z"/>
		<path fill="#FFFFFF" d="M25.301,12.021c-0.401-0.031-1.221-0.118-2.184-0.221l-0.074,1.119c2.848-0.054,6.798,0.197,6.798,0.197
			l0.479-0.689C30.319,12.426,28.79,12.292,25.301,12.021z"/>
		<path fill="#FFFFFF" d="M23.048,20.703c-0.805-0.217-1.521-0.367-1.904-0.469c1.123-1.322,1.202-3.538,0.547-4.72
			c-0.517-0.93-1.193-1.842-1.432-2.241c0.212-0.172,0.887-0.271,1.784-0.32l0.083-1.261c-1.933-0.209-4.052-0.437-4.538-0.437
			c-0.464,0-2.142,0.2-3.873,0.409v1.48c0.822,0.047,1.42,0.135,1.571,0.287c1.045,1.045,1.065,4.966-0.152,7.62
			c-0.187,0.405-0.562,0.939-1.062,1.549l3.13,1.466c0.502-0.377,0.99-0.75,1.456-1.115c0.834,0.009,1.769,0.13,2.67,0.314
			L23.048,20.703z"/>
	</g>
	<g>
		<circle fill="#FFFFFF" cx="17.791" cy="8.488" r="2.127"/>
	</g>
	<g>
		<path fill="#FFFFFF" d="M15.664,6.595C15.566,6.341,15.025,5.633,13.941,6c-1.709,0.58-1.385,3.888-1.385,3.888
			s0.767-2.317,1.513-2.393c0.362-0.037,0.692,0.021,1.079-0.102L15.664,6.595z"/>
	</g>
	<g>
		<path fill="#231F20" d="M20.184,16.133c-0.747,0-1.122,0.656-1.122,0.656s-0.373-0.656-1.121-0.656
			c-0.668,0-1.001,0.628-1.001,1.132c0,1.092,2.122,2.547,2.122,2.547s2.123-1.455,2.123-2.547
			C21.185,16.761,20.853,16.133,20.184,16.133z"/>
	</g>
</g>
</svg>
