<?xml version="1.0" encoding="utf-8"?>
<!-- Generator: Adobe Illustrator 23.0.6, SVG Export Plug-In . SVG Version: 6.00 Build 0)  -->
<svg version="1.1" id="Warstwa_1" xmlns="http://www.w3.org/2000/svg" xmlns:xlink="http://www.w3.org/1999/xlink" x="0px" y="0px"
	 viewBox="0 0 35 35" style="enable-background:new 0 0 35 35;" xml:space="preserve">
<style type="text/css">
	.st0{fill:#FFFFFF;}
</style>
<ellipse transform="matrix(3.013497e-02 -0.9995 0.9995 3.013497e-02 -0.5128 34.5614)" cx="17.6" cy="17.5" rx="17.4" ry="17.4"/>
<path class="st0" d="M15.6,25.9h-3.1c-0.8,0-1.4-0.6-1.4-1.4V10.1c0-0.8,0.6-1.4,1.4-1.4h3.1v1h-3.1c-0.2,0-0.4,0.2-0.4,0.4v14.3
	c0,0.2,0.2,0.4,0.4,0.4h3.1V25.9z M24.9,9.8v15c0,0.5-0.4,1-0.9,1.2l-6.7,1.7c-0.5,0.1-0.9-0.2-0.9-0.7V7.7c0-0.5,0.4-0.8,0.9-0.7
	L24,8.7C24.5,8.8,24.9,9.3,24.9,9.8z M19.5,17.5c0-0.4-0.3-0.8-0.8-0.8c-0.4,0-0.8,0.3-0.8,0.8s0.3,0.8,0.8,0.8
	C19.2,18.2,19.5,17.9,19.5,17.5z"/>
</svg>
