<svg xmlns="http://www.w3.org/2000/svg" width="35" height="35"><path fill="#FFF" d="M26.338 10.639a.996.996 0 0 0-.996-.997h-.814v1.349c0 .531-.388.964-.864.964h-1.358c-.477 0-.864-.433-.864-.964V9.642H13.56v1.349c0 .531-.388.964-.864.964h-1.358c-.477 0-.864-.433-.864-.964V9.642h-.816a.996.996 0 0 0-.996.997v3.666h17.676v-3.666zM8.662 25.453c0 .55.446.996.996.996h15.684c.55 0 .996-.446.996-.996V15.3H8.662v10.153zm13.827-7.84h1.903v1.442h-1.903v-1.442zm0 2.462h1.903v1.442h-1.903v-1.442zm-3.914-2.462h1.903v1.442h-1.903v-1.442zm0 2.462h1.903v1.442h-1.903v-1.442zm0 2.251h1.903v1.443h-1.903v-1.443zm-3.913-4.713h1.903v1.442h-1.903v-1.442zm0 2.462h1.903v1.442h-1.903v-1.442zm0 2.251h1.903v1.443h-1.903v-1.443zm-3.914-4.713h1.903v1.442h-1.903v-1.442zm0 2.462h1.903v1.442h-1.903v-1.442zm0 2.251h1.903v1.443h-1.903v-1.443z"/><path fill="#FFF" d="M11.471 7.704h1.09v3.255h-1.09zm10.969 0h1.089v3.255H22.44z"/><path fill="#231F20" d="M17.5 0C7.835 0 0 7.835 0 17.5S7.835 35 17.5 35 35 27.165 35 17.5 27.165 0 17.5 0zm6.031 7.704l-.005 3.255h-1.089l.004-3.255h1.09zm-10.968 0l-.004 3.255h-1.09l.005-3.255h1.089zm-3.901 2.935c0-.551.446-.997.996-.997h.814v1.349c0 .531.388.964.864.964h1.358c.477 0 .864-.433.864-.964V9.642h7.881v1.349c0 .531.388.964.864.964h1.358c.477 0 .864-.433.864-.964V9.642h.814c.55 0 .996.446.996.997v3.666H8.662v-3.666zm17.676 14.814c0 .55-.446.996-.996.996H9.658a.996.996 0 0 1-.996-.996V15.3h17.676v10.153z"/><path fill="#231F20" d="M10.748 17.613h1.903v1.442h-1.903zm3.914 0h1.903v1.442h-1.903zm3.913 0h1.903v1.442h-1.903zm3.914 0h1.903v1.442h-1.903zm-11.741 2.462h1.903v1.442h-1.903zm3.914 0h1.903v1.442h-1.903zm3.913 0h1.903v1.442h-1.903zm3.914 0h1.903v1.442h-1.903zm-11.741 2.251h1.903v1.443h-1.903zm3.914 0h1.903v1.443h-1.903zm3.913 0h1.903v1.443h-1.903z"/></svg>