<svg xmlns="http://www.w3.org/2000/svg" width="35" height="35"><path fill="#231F20" d="M17.341 0A17.377 17.377 0 0 0 5.026 5.094c2.433 1.945 5.866 4.286 9.183 6.439l-1.89 2.88c-2.112-2.425-6.14-6.674-8.049-8.49C1.563 8.994-.093 13.015-.093 17.431c0 9.629 7.806 17.434 17.434 17.434s17.434-7.805 17.434-17.434C34.774 7.804 26.969 0 17.341 0zm-3.024 32.63l-.793-.188c-.129-7.085-.071-10.884-.009-13.154l2.8 1.478c-.554 1.873-1.235 5.334-1.998 11.864zm2.808-13.666l-.058-.033c-.129.192-.274.478-.432.882l-3.087-1.63c.033-1.034.055-1.659.029-2.22a9.741 9.741 0 0 0-.588-.76l2.053-3.13c.919.592 1.823 1.166 2.685 1.707l-.602 5.184zm5.89 13.794l-.76-.016s.427-5.225.444-8.199l1.564.616-1.248 7.599zm2.16-13.141l-.746 4.54-1.746-.688c-.018-.373-.052-.658-.104-.811-1.341-1.223-2.851-2.163-4.518-3.145l.601-5.185c1.973 1.084 3.695 1.568 4.702 1.941.089.034.221-.266.372-.774l1.761.791-.322 3.331zm-1.177-5.092c.729-2.959 1.714-8.642 1.714-8.642l.739.514-.854 8.847-1.599-.719zm4.052 7.734a2.12 2.12 0 1 1 .002-4.238 2.12 2.12 0 0 1-.002 4.238z"/></svg>