<svg xmlns="http://www.w3.org/2000/svg" width="35" height="35"><circle fill="#231F20" cx="17.5" cy="17.5" r="17.5"/><path fill="#231F20" d="M11.177 10.715h13.134v13.569H11.177z"/><path fill="#FFF" d="M18.747 22.153l-4.658-4.658 1.621-1.621 3.037 3.037 7.208-7.208 1.621 1.621z"/><path fill="none" d="M12.271 11.811v11.38h10.944v-4.427l-.664.665c-.02-.08-.045-.157-.068-.235a5.42 5.42 0 0 0 .039-.815l.693-.693v-3.243l-.979.979a4.871 4.871 0 0 0-.303-.779l1.281-1.281v-1.55H12.271zm13.669 3.148l.015-3.256-.55.55v3.241z"/><path fill="#FFF" d="M25.405 15.494v-3.241l-2.189 2.188v3.244z"/><path fill="#FFF" d="M23.216 23.19H12.271V11.81h10.944v1.55l2.189-2.189v-.457c0-.604-.49-1.094-1.095-1.094H11.177c-.604 0-1.095.49-1.095 1.094v13.569c0 .605.49 1.095 1.095 1.095h13.134c.604 0 1.095-.489 1.095-1.095v-7.709l-2.189 2.188v4.428z"/></svg>