<svg xmlns="http://www.w3.org/2000/svg" width="70" height="70"><path fill="#FFF" d="M32.756 28.586c1.497 0 2.244 1.313 2.244 1.313s.749-1.313 2.244-1.313c1.336 0 2.001 1.257 2.001 2.265 0 2.183-4.245 5.094-4.245 5.094s-4.244-2.911-4.244-5.094c0-1.008.664-2.265 2-2.265z"/><circle fill="#5348D4" cx="35" cy="35" r="35"/><path fill="#FFF" d="M50.544 19.455L30.62 30.62 19.455 50.545 39.379 39.38l11.165-19.925zM33.062 36.938a2.74 2.74 0 1 1 3.875-3.875 2.74 2.74 0 0 1-3.875 3.875zm.997-33.036h1.882v5.043h-1.882zm0 57.637h1.882v5.043h-1.882zm26.996-27.48h5.043v1.882h-5.043zm-57.637 0h5.043v1.882H3.418z"/></svg>