<?xml version="1.0" encoding="utf-8"?>
<!-- Generator: Adobe Illustrator 23.0.0, SVG Export Plug-In . SVG Version: 6.00 Build 0)  -->
<svg version="1.1" id="Warstwa_1" xmlns="http://www.w3.org/2000/svg" xmlns:xlink="http://www.w3.org/1999/xlink" x="0px" y="0px"
	 viewBox="0 0 70 70" style="enable-background:new 0 0 70 70;" xml:space="preserve">
<style type="text/css">
	.st0{fill:#1F489B;}
	.st1{fill:#FFFFFF;}
</style>
<path class="st0" d="M35,0C15.7,0,0,15.7,0,35s15.7,35,35,35s35-15.7,35-35S54.3,0,35,0z M43.2,47.7c-1.6,0-3.2-0.3-4.7-0.7
	c2.9-0.9,7.1-3.1,10.1-8.1c0.8-1.4,1.5-2.9,1.9-4.4c1-0.1,2.1-0.2,3.1-0.2c3.1,0,5.7,0.6,7.2,0.9c-1.3,2.4-4.9,8.3-11.1,11.1
	C47.6,47.3,45.4,47.7,43.2,47.7z M16.3,34.3c1.1,0,2.1,0.1,3.1,0.2c0.5,1.5,1.1,3,1.9,4.4c3,5,7.2,7.2,10.1,8.1
	c-1.5,0.5-3.1,0.7-4.7,0.7c-2.2,0-4.4-0.5-6.5-1.4c-6.2-2.7-9.9-8.6-11.1-11.1C11.5,34.7,13.9,34.3,16.3,34.3z M20.6,22.3
	c1.6,0.6,4.7,2,7.6,4.3c-0.6,2-1,4.1-1,6.4c0,5.4,2.2,9.3,4.2,11.6c-2.5-0.9-5.8-2.9-8.1-6.9C19.8,32,20.2,25.1,20.6,22.3z
	 M29.3,33.1c0-6.8,3.9-12.5,5.7-14.7c1.7,2.2,5.7,7.9,5.7,14.7c0,7-4.1,11-5.6,12.2C31.4,42.3,29.3,37.8,29.3,33.1z M41.8,26.7
	c2.9-2.4,6-3.7,7.6-4.3c0.4,2.7,0.9,9.6-2.6,15.5c-2.4,4-5.7,6-8.2,6.9c2-2.4,4.2-6.2,4.2-11.7C42.8,30.8,42.4,28.6,41.8,26.7z"/>
<path class="st1" d="M60.8,35.3c-2.3-0.6-4.8-0.9-7.2-0.9c-1.1,0-2.1,0.1-3.1,0.2c-0.5,1.5-1.1,3-1.9,4.4c-3,5-7.2,7.2-10.1,8.1
	c1.5,0.5,3.1,0.7,4.7,0.7c2.2,0,4.4-0.5,6.5-1.4C55.9,43.6,59.6,37.7,60.8,35.3z"/>
<path class="st1" d="M46.8,37.8c3.5-5.8,3-12.8,2.6-15.5c-1.6,0.6-4.7,2-7.6,4.3c0.6,2,1,4.1,1,6.4c0,5.5-2.2,9.3-4.2,11.7
	C41.1,43.8,44.4,41.9,46.8,37.8z M20.3,46.3c2.1,0.9,4.3,1.4,6.5,1.4c1.6,0,3.2-0.2,4.7-0.7c-2.9-0.9-7.1-3.1-10.1-8.1
	c-0.8-1.4-1.5-2.9-1.9-4.4c-1-0.1-2-0.2-3.1-0.2c-3.1,0-5.7,0.6-7.2,0.9C10.4,37.7,14.1,43.6,20.3,46.3z"/>
<path class="st1" d="M31.4,44.7c-2-2.4-4.2-6.2-4.2-11.6c0-2.3,0.4-4.4,1-6.4c-2.9-2.4-6-3.7-7.6-4.3c-0.4,2.7-0.9,9.7,2.6,15.5
	C25.6,41.8,28.9,43.8,31.4,44.7z"/>
<path class="st1" d="M40.7,33.1c0-6.8-3.9-12.5-5.7-14.7c-1.7,2.2-5.7,7.9-5.7,14.7c0,4.7,2,9.2,5.7,12.2C36.6,44,40.7,40,40.7,33.1
	z"/>
</svg>
