<?xml version="1.0" encoding="utf-8"?>
<!-- Generator: Adobe Illustrator 23.0.1, SVG Export Plug-In . SVG Version: 6.00 Build 0)  -->
<svg version="1.1" id="Warstwa_1" xmlns="http://www.w3.org/2000/svg" xmlns:xlink="http://www.w3.org/1999/xlink" x="0px" y="0px"
	 viewBox="0 0 35 35" style="enable-background:new 0 0 35 35;" xml:space="preserve">
<style type="text/css">
	.st0{fill:#231F20;}
	.st1{fill:#FFFFFF;}
</style>
<circle class="st0" cx="17.5" cy="17.5" r="17.5"/>
<g>
	<path class="st1" d="M17.4,18.9c0.1,0.1,0.2,0.1,0.3,0l9.3-7.9c-0.2-0.2-0.5-0.3-0.9-0.3H9c-0.4,0-0.8,0.2-1,0.5L17.4,18.9z"/>
	<polygon class="st1" points="20.9,17.8 27.4,23.2 27.4,12.3 	"/>
	<polygon class="st1" points="7.6,12.6 7.6,23.4 7.6,23.4 14.1,17.9 	"/>
	<path class="st1" d="M19.9,18.7l-1.4,1.2c-0.3,0.2-0.6,0.4-1,0.4c-0.3,0-0.7-0.1-1-0.4l-1.4-1.1l-6.8,5.8c0.2,0.1,0.4,0.2,0.7,0.2
		H26c0.3,0,0.6-0.1,0.8-0.3L19.9,18.7z"/>
</g>
</svg>
