<svg xmlns="http://www.w3.org/2000/svg" width="35" height="35"><circle fill="#231F20" cx="17.5" cy="17.5" r="17.5"/><path d="M12.719 13.109v-1.324c-1.021.123-1.983.237-2.636.302-2.489.246-4.301.572-4.301.572l.25.616c-.001 0 3.938-.221 6.687-.166zm.68 10.277c-2.959 3.326-8.398 8.075-8.398 8.075l.607.514s5.779-3.644 10.683-7.235l-2.892-1.354zm10.65-2.387l-1.685 2.51c.978.262 1.843.583 2.388.897.305 2.467.497 7.37.497 7.37h.67s1.503-8.344.51-9.602c-.578-.494-1.474-.878-2.38-1.175zm1.252-8.978c-.401-.031-1.221-.118-2.184-.221l-.074 1.119c2.848-.054 6.798.197 6.798.197l.479-.689a508.26 508.26 0 0 0-5.019-.406zm-2.253 8.682c-.805-.217-1.521-.367-1.904-.469 1.123-1.322 1.202-3.538.547-4.72-.517-.93-1.193-1.842-1.432-2.241.212-.172.887-.271 1.784-.32l.083-1.261c-1.933-.209-4.052-.437-4.538-.437-.464 0-2.142.2-3.873.409v1.48c.822.047 1.42.135 1.571.287 1.045 1.045 1.065 4.966-.152 7.62-.187.405-.562.939-1.062 1.549l3.13 1.466c.502-.377.99-.75 1.456-1.115.834.009 1.769.13 2.67.314l1.72-2.562z" fill="#FFF"/><circle fill="#FFF" cx="17.791" cy="8.488" r="2.127"/><path fill="#FFF" d="M15.664 6.595c-.098-.254-.639-.962-1.723-.595-1.709.58-1.385 3.888-1.385 3.888s.767-2.317 1.513-2.393c.362-.037.692.021 1.079-.102l.516-.798z"/><path fill="#231F20" d="M20.184 16.133c-.747 0-1.122.656-1.122.656s-.373-.656-1.121-.656c-.668 0-1.001.628-1.001 1.132 0 1.092 2.122 2.547 2.122 2.547s2.123-1.455 2.123-2.547c0-.504-.332-1.132-1.001-1.132z"/></svg>