<svg xmlns="http://www.w3.org/2000/svg" width="35" height="35"><path fill="#231F20" d="M17.5 0C7.835 0 0 7.835 0 17.5S7.835 35 17.5 35 35 27.165 35 17.5 27.165 0 17.5 0zm5.463 14.468v6.73c0 1.758-2.399 3.135-5.463 3.135s-5.463-1.377-5.463-3.135v-7.245h.076c.418-1.503 2.631-2.619 5.387-2.619s4.969 1.116 5.387 2.619h.076v.515z"/><path fill="#FFF" d="M17.5 23.668c2.602 0 4.799-1.133 4.799-2.471v-.725c-.835.883-2.384 1.495-4.233 1.6a9.564 9.564 0 0 1-1.131 0c-1.85-.104-3.397-.717-4.232-1.6v.725c-.002 1.338 2.195 2.471 4.797 2.471z"/><path fill="#231F20" d="M22.299 20.473v.725c0 1.338-2.197 2.471-4.799 2.471s-4.799-1.133-4.799-2.471v-.725c-.424-.447-.664-.963-.664-1.519v2.243c0 1.758 2.399 3.135 5.463 3.135s5.463-1.377 5.463-3.135v-2.243c0 .556-.24 1.071-.664 1.519z"/><path fill="#FFF" d="M12.701 18.954c0 1.255 1.932 2.327 4.316 2.457a8.513 8.513 0 0 0 .964 0c2.385-.13 4.316-1.202 4.316-2.457v-.724c-.835.881-2.384 1.494-4.233 1.6a10.506 10.506 0 0 1-1.131 0c-1.85-.105-3.397-.719-4.232-1.6v.724z"/><path fill="#231F20" d="M22.299 18.23v.724c0 1.255-1.932 2.327-4.316 2.457a8.513 8.513 0 0 1-.964 0c-2.385-.13-4.316-1.202-4.316-2.457v-.724c-.424-.448-.664-.964-.664-1.519v2.243c0 .556.24 1.071.664 1.519.835.883 2.383 1.495 4.232 1.6a9.598 9.598 0 0 0 1.131 0c1.85-.104 3.398-.717 4.233-1.6.424-.447.664-.963.664-1.519v-2.243c0 .555-.24 1.072-.664 1.519z"/><path fill="#FFF" d="M12.701 16.711c0 1.255 1.932 2.328 4.316 2.457a8.507 8.507 0 0 0 .964 0c2.385-.129 4.316-1.201 4.316-2.457v-.724c-.919.97-2.703 1.615-4.799 1.615s-3.88-.645-4.799-1.615v.724z"/><path fill="#231F20" d="M22.963 14.468v-.515h-.076c.046.168.076.339.076.515zm-10.926-.515v.515c0-.176.03-.347.076-.515h-.076z"/><path fill="#231F20" d="M22.299 15.987v.724c0 1.255-1.932 2.328-4.316 2.457a8.507 8.507 0 0 1-.964 0c-2.385-.129-4.316-1.201-4.316-2.457v-.724c-.424-.448-.664-.964-.664-1.52v2.244c0 .555.24 1.071.664 1.519.835.881 2.383 1.494 4.232 1.6a10.544 10.544 0 0 0 1.131 0c1.85-.105 3.398-.719 4.233-1.6.424-.448.664-.964.664-1.519v-2.244c0 .556-.24 1.073-.664 1.52z"/><path fill="#FFF" d="M17.5 11.998c-2.602 0-4.799 1.131-4.799 2.47 0 1.339 2.197 2.471 4.799 2.471s4.799-1.131 4.799-2.471c0-1.339-2.197-2.47-4.799-2.47z"/><path fill="#231F20" d="M17.5 11.333c-2.756 0-4.969 1.116-5.387 2.619a1.944 1.944 0 0 0-.076.515c0 .555.24 1.072.664 1.52.919.97 2.703 1.615 4.799 1.615s3.88-.645 4.799-1.615c.424-.448.664-.964.664-1.52 0-.176-.03-.347-.076-.515-.418-1.503-2.631-2.619-5.387-2.619zm4.799 3.135c0 1.339-2.197 2.471-4.799 2.471s-4.799-1.131-4.799-2.471c0-1.339 2.197-2.47 4.799-2.47s4.799 1.131 4.799 2.47z"/></svg>