<?xml version="1.0" encoding="utf-8"?>
<!-- Generator: Adobe Illustrator 16.0.0, SVG Export Plug-In . SVG Version: 6.00 Build 0)  -->
<!DOCTYPE svg PUBLIC "-//W3C//DTD SVG 1.1//EN" "http://www.w3.org/Graphics/SVG/1.1/DTD/svg11.dtd">
<svg version="1.1" id="Warstwa_1" xmlns="http://www.w3.org/2000/svg" xmlns:xlink="http://www.w3.org/1999/xlink" x="0px" y="0px"
	 width="70px" height="70px" viewBox="0 0 70 70" enable-background="new 0 0 70 70" xml:space="preserve">
<path fill="#FFFFFF" d="M32.756,28.586c1.497,0,2.244,1.313,2.244,1.313s0.749-1.313,2.244-1.313c1.336,0,2.001,1.257,2.001,2.265
	c0,2.183-4.245,5.094-4.245,5.094s-4.244-2.911-4.244-5.094C30.756,29.843,31.42,28.586,32.756,28.586z"/>
<circle fill="#5348D4" cx="35" cy="35" r="35"/>
<path fill="#FFFFFF" d="M50.544,19.455L30.62,30.62L19.455,50.545L39.379,39.38L50.544,19.455z M33.062,36.938
	c-1.069-1.069-1.069-2.805,0-3.875c1.07-1.07,2.806-1.07,3.875,0c1.07,1.07,1.07,2.805,0,3.875
	C35.867,38.009,34.132,38.008,33.062,36.938z"/>
<rect x="34.059" y="3.902" fill="#FFFFFF" width="1.882" height="5.043"/>
<rect x="34.059" y="61.539" fill="#FFFFFF" width="1.882" height="5.043"/>
<rect x="61.055" y="34.059" fill="#FFFFFF" width="5.043" height="1.882"/>
<rect x="3.418" y="34.059" fill="#FFFFFF" width="5.043" height="1.882"/>
</svg>
