<svg xmlns="http://www.w3.org/2000/svg" width="35" height="35"><path fill="#231F20" d="M17.5 0C7.835 0 0 7.835 0 17.5S7.835 35 17.5 35 35 27.165 35 17.5 27.165 0 17.5 0zm0 6.314a2.127 2.127 0 1 1 0 4.253 2.127 2.127 0 0 1 0-4.253zm-2.953 6.211c.277-.233 1.47-.945 2.872-.945 1.295 0 2.595.711 2.872.945.872.734 1.475 2.349 1.901 3.729l-1.366 1.054c-.253-.687-.45-1.265-.45-1.265s-.412.48-.459 1.81c-.041 1.184.075 2.158.227 2.828l-5.41-.188c.131-.659.224-1.563.187-2.64-.047-1.329-.459-1.81-.459-1.81s-.19.56-.438 1.23l-1.345-1.131c.425-1.353 1.019-2.902 1.868-3.617zm10.927 13.607c-1.052.291-5.885-.738-5.885-.738s-.407-.502.457-1.092c.055-.038-.093-.102-.241-.102-.866 0-5.765 1.299-5.765 1.299s-3.625.924-4.676.633c-1.052-.291-2.184-1.843-.257-2.643l2.828-4.987c.11-.195.251-.688.433-1.318l1.28 1.077c-.145.363-.286.699-.406.937-.664 1.327-1.737 2.321-2.925 3.924 2.256-.491 3.542-1.004 4.016-1.478a.674.674 0 0 0 .105-.165l6.05.211.002-.063.014.018c.474.474 1.76.986 4.016 1.478-1.188-1.603-2.261-2.597-2.925-3.924a12.888 12.888 0 0 1-.398-.917l1.3-1.002c.169.585.301 1.038.405 1.224l2.829 4.987c1.925.798.793 2.35-.257 2.641z"/><path fill="#FFF" d="M14.023 17.273c.247-.671.438-1.23.438-1.23s.412.48.459 1.81a11.732 11.732 0 0 1-.187 2.64l5.41.188c-.151-.67-.268-1.645-.227-2.828.047-1.329.459-1.81.459-1.81s.197.578.45 1.265l1.366-1.054c-.427-1.38-1.029-2.994-1.901-3.729-.277-.233-1.577-.945-2.872-.945-1.402 0-2.595.711-2.872.945-.849.715-1.443 2.264-1.868 3.617l1.345 1.131zm2.136-3.672c.894 0 1.341 1.118 1.341 1.118s.447-1.118 1.341-1.118c.8 0 1.197.751 1.197 1.354 0 1.305-2.538 3.044-2.538 3.044s-2.537-1.739-2.537-3.044c0-.602.397-1.354 1.196-1.354z"/><path fill="#FFF" d="M25.73 23.489l-2.829-4.987c-.104-.186-.236-.639-.405-1.224l-1.3 1.002c.143.355.281.684.398.917.664 1.327 1.737 2.321 2.925 3.924-2.256-.491-3.542-1.004-4.016-1.478l-.014-.018-.002.063-6.05-.211a.674.674 0 0 1-.105.165c-.474.474-1.76.986-4.016 1.478 1.188-1.603 2.261-2.597 2.925-3.924.12-.237.262-.573.406-.937l-1.28-1.077c-.182.63-.322 1.123-.433 1.318l-2.828 4.987c-1.927.8-.795 2.352.257 2.643 1.051.291 4.676-.633 4.676-.633s4.898-1.299 5.765-1.299c.148 0 .296.063.241.102-.864.59-.457 1.092-.457 1.092s4.833 1.029 5.885.738c1.051-.289 2.183-1.841.257-2.641z"/><circle fill="#FFF" cx="17.5" cy="8.441" r="2.127"/><path fill="#231F20" d="M17.5 17.999s2.538-1.739 2.538-3.044c0-.603-.397-1.354-1.197-1.354-.894 0-1.341 1.118-1.341 1.118s-.447-1.118-1.341-1.118c-.799 0-1.196.751-1.196 1.354 0 1.305 2.537 3.044 2.537 3.044z"/></svg>