<svg xmlns="http://www.w3.org/2000/svg" width="35" height="35"><circle fill="#231F20" cx="17.5" cy="17.5" r="17.5"/><circle fill="#FFF" cx="12.995" cy="11.147" r="2.127"/><g fill="#FFF"><path d="M17.532 15.586l.171-.968s1.074-.726 2.486-.363c.013.003-.034.395 0 .702l3.785-.814c0-1.592-2.122-4.181-3.708-4.188-.86-.004-3.063.111-3.528.507-1.135.966-1.123 4.369-1.137 4.581l1.931.543zm6.638-.629l-3.98.866c.104 1.057.614 2.236.786 2.877l3.147-.424.047-3.319z"/><path d="M21.032 19.697c.072 1.365.133 2.435.133 2.435l-5.855.659 1.71-4.529.321-1.739-1.857-.507a96.866 96.866 0 0 0-.142 2.236l-.727 3.796-.542.103-3.649 2.281h1.425c1.02-.176 2.069-.471 3.073-.363 2.05.221 5.2.516 7.124.27 1.552-.199 1.96-4.758 2.01-5.039l-3.024.397z"/></g></svg>