<svg xmlns="http://www.w3.org/2000/svg" width="70" height="70"><path fill="#00047A" d="M35 0C15.67 0 0 15.67 0 35s15.67 35 35 35 35-15.67 35-35S54.33 0 35 0zm0 12.628a4.254 4.254 0 1 1 0 8.509 4.255 4.255 0 1 1 0-8.509zm-5.908 12.423c.556-.467 3.744-2.173 5.746-2.173 1.848 0 5.188 1.706 5.744 2.173 1.631 1.374 2.792 4.293 3.635 6.923l-2.702 2.084c-.438-1.278-.763-2.303-.763-2.303s-.824 1.291-.918 3.95c-.082 2.366.149 4.317.452 5.656l-10.819-.377c.262-1.316.447-3.124.372-5.279-.093-2.659-.917-3.95-.917-3.95s-.314.992-.742 2.24l-2.654-2.232c.835-2.575 1.978-5.374 3.566-6.712zm21.855 27.212c-2.104.582-11.77-1.475-11.77-1.475s-.814-1.004.914-2.184c.109-.076-.187-.204-.483-.204-1.731 0-11.53 2.597-11.53 2.597s-7.249 1.848-9.352 1.266c-2.102-.58-4.365-3.684-.513-5.284l5.657-9.974c.252-.444.579-1.658 1.021-3.172l2.578 2.17c-.347.938-.698 1.822-.984 2.394-1.329 2.652-3.475 4.641-5.851 7.847 4.512-.983 7.084-2.01 8.03-2.956.064-.063.136-.177.21-.328l12.102.421.005-.128c.009.012.018.026.027.035.946.946 3.52 1.973 8.031 2.956-2.376-3.206-4.522-5.194-5.851-7.847-.283-.565-.63-1.437-.973-2.363l2.618-2.02c.415 1.428.727 2.565.97 2.991.743 1.314 5.656 9.974 5.656 9.974 3.854 1.6 1.59 4.704-.512 5.284z"/><g fill="#FFF"><path d="M51.461 46.979s-4.913-8.659-5.656-9.974c-.243-.426-.555-1.563-.97-2.991l-2.618 2.02c.343.927.689 1.798.973 2.363 1.328 2.652 3.475 4.641 5.851 7.847-4.512-.983-7.085-2.01-8.031-2.956-.01-.009-.019-.023-.027-.035l-.005.128-12.102-.421a1.273 1.273 0 0 1-.21.328c-.946.946-3.519 1.973-8.03 2.956 2.376-3.206 4.521-5.194 5.851-7.847.286-.571.638-1.456.984-2.394l-2.578-2.17c-.441 1.514-.769 2.728-1.021 3.172l-5.657 9.974c-3.853 1.601-1.589 4.704.513 5.284 2.103.582 9.352-1.266 9.352-1.266S37.879 48.4 39.61 48.4c.297 0 .593.128.483.204-1.729 1.18-.914 2.184-.914 2.184s9.666 2.057 11.77 1.475c2.1-.58 4.364-3.684.512-5.284z"/><path d="M28.922 31.755s.824 1.291.917 3.95c.075 2.155-.11 3.963-.372 5.279l10.819.377c-.303-1.339-.534-3.29-.452-5.656.094-2.659.918-3.95.918-3.95s.325 1.024.763 2.303l2.702-2.084c-.843-2.63-2.004-5.549-3.635-6.923-.556-.467-3.896-2.173-5.744-2.173-2.002 0-5.19 1.706-5.746 2.173-1.588 1.338-2.73 4.138-3.566 6.712l2.654 2.232c.427-1.248.742-2.24.742-2.24z"/><circle cx="35" cy="16.882" r="4.254"/></g></svg>