<?xml version="1.0" encoding="utf-8"?>
<!-- Generator: Adobe Illustrator 16.0.0, SVG Export Plug-In . SVG Version: 6.00 Build 0)  -->
<!DOCTYPE svg PUBLIC "-//W3C//DTD SVG 1.1//EN" "http://www.w3.org/Graphics/SVG/1.1/DTD/svg11.dtd">
<svg version="1.1" id="Warstwa_1" xmlns="http://www.w3.org/2000/svg" xmlns:xlink="http://www.w3.org/1999/xlink" x="0px" y="0px"
	 width="35px" height="35px" viewBox="0 0 35 35" enable-background="new 0 0 35 35" xml:space="preserve">
<g>
	<path fill="#FFFFFF" d="M26.338,10.639c0-0.551-0.446-0.997-0.996-0.997h-0.814v1.349c0,0.531-0.388,0.964-0.864,0.964h-1.358
		c-0.477,0-0.864-0.433-0.864-0.964V9.642H13.56v1.349c0,0.531-0.388,0.964-0.864,0.964h-1.358c-0.477,0-0.864-0.433-0.864-0.964
		V9.642H9.658c-0.55,0-0.996,0.446-0.996,0.997v3.666h17.676V10.639z"/>
	<path fill="#FFFFFF" d="M8.662,25.453c0,0.55,0.446,0.996,0.996,0.996h15.684c0.55,0,0.996-0.446,0.996-0.996V15.3H8.662V25.453z
		 M22.489,17.613h1.903v1.442h-1.903V17.613z M22.489,20.075h1.903v1.442h-1.903V20.075z M18.575,17.613h1.903v1.442h-1.903V17.613z
		 M18.575,20.075h1.903v1.442h-1.903V20.075z M18.575,22.326h1.903v1.443h-1.903V22.326z M14.662,17.613h1.903v1.442h-1.903V17.613z
		 M14.662,20.075h1.903v1.442h-1.903V20.075z M14.662,22.326h1.903v1.443h-1.903V22.326z M10.748,17.613h1.903v1.442h-1.903V17.613z
		 M10.748,20.075h1.903v1.442h-1.903V20.075z M10.748,22.326h1.903v1.443h-1.903V22.326z"/>
	<rect x="11.471" y="7.704" fill="#FFFFFF" width="1.09" height="3.255"/>
	<rect x="22.44" y="7.704" fill="#FFFFFF" width="1.089" height="3.255"/>
	<path fill="#231F20" d="M17.5,0C7.835,0,0,7.835,0,17.5S7.835,35,17.5,35S35,27.165,35,17.5S27.165,0,17.5,0z M23.531,7.704
		l-0.005,3.255h-1.089l0.004-3.255H23.531z M12.563,7.704l-0.004,3.255h-1.09l0.005-3.255H12.563z M8.662,10.639
		c0-0.551,0.446-0.997,0.996-0.997h0.814v1.349c0,0.531,0.388,0.964,0.864,0.964h1.358c0.477,0,0.864-0.433,0.864-0.964V9.642h7.881
		v1.349c0,0.531,0.388,0.964,0.864,0.964h1.358c0.477,0,0.864-0.433,0.864-0.964V9.642h0.814c0.55,0,0.996,0.446,0.996,0.997v3.666
		H8.662V10.639z M26.338,25.453c0,0.55-0.446,0.996-0.996,0.996H9.658c-0.55,0-0.996-0.446-0.996-0.996V15.3h17.676V25.453z"/>
	<rect x="10.748" y="17.613" fill="#231F20" width="1.903" height="1.442"/>
	<rect x="14.662" y="17.613" fill="#231F20" width="1.903" height="1.442"/>
	<rect x="18.575" y="17.613" fill="#231F20" width="1.903" height="1.442"/>
	<rect x="22.489" y="17.613" fill="#231F20" width="1.903" height="1.442"/>
	<rect x="10.748" y="20.075" fill="#231F20" width="1.903" height="1.442"/>
	<rect x="14.662" y="20.075" fill="#231F20" width="1.903" height="1.442"/>
	<rect x="18.575" y="20.075" fill="#231F20" width="1.903" height="1.442"/>
	<rect x="22.489" y="20.075" fill="#231F20" width="1.903" height="1.442"/>
	<rect x="10.748" y="22.326" fill="#231F20" width="1.903" height="1.443"/>
	<rect x="14.662" y="22.326" fill="#231F20" width="1.903" height="1.443"/>
	<rect x="18.575" y="22.326" fill="#231F20" width="1.903" height="1.443"/>
</g>
</svg>
