<?xml version="1.0" encoding="utf-8"?>
<!-- Generator: Adobe Illustrator 16.0.0, SVG Export Plug-In . SVG Version: 6.00 Build 0)  -->
<!DOCTYPE svg PUBLIC "-//W3C//DTD SVG 1.1//EN" "http://www.w3.org/Graphics/SVG/1.1/DTD/svg11.dtd">
<svg version="1.1" id="Warstwa_1" xmlns="http://www.w3.org/2000/svg" xmlns:xlink="http://www.w3.org/1999/xlink" x="0px" y="0px"
	 width="35px" height="35px" viewBox="0 0 35 35" enable-background="new 0 0 35 35" xml:space="preserve">
<g>
	<path fill="#231F20" d="M17.5,0C7.835,0,0,7.835,0,17.5C0,27.165,7.835,35,17.5,35S35,27.165,35,17.5C35,7.835,27.165,0,17.5,0z
		 M22.963,14.468v1.728v0.516v1.727v0.516v2.243c0,1.758-2.399,3.135-5.463,3.135s-5.463-1.377-5.463-3.135v-2.243v-0.516v-1.727
		v-0.516v-1.728v-0.515h0.076c0.418-1.503,2.631-2.619,5.387-2.619s4.969,1.116,5.387,2.619h0.076V14.468z"/>
	<path fill="#FFFFFF" d="M17.5,23.668c2.602,0,4.799-1.133,4.799-2.471v-0.725c-0.835,0.883-2.384,1.495-4.233,1.6
		c-0.186,0.011-0.374,0.016-0.565,0.016c-0.192,0-0.38-0.005-0.566-0.016c-1.85-0.104-3.397-0.717-4.232-1.6v0.725
		C12.701,22.535,14.898,23.668,17.5,23.668z"/>
	<path fill="#231F20" d="M22.299,20.473v0.725c0,1.338-2.197,2.471-4.799,2.471s-4.799-1.133-4.799-2.471v-0.725
		c-0.424-0.447-0.664-0.963-0.664-1.519v2.243c0,1.758,2.399,3.135,5.463,3.135s5.463-1.377,5.463-3.135v-2.243
		C22.963,19.51,22.723,20.025,22.299,20.473z"/>
	<path fill="#FFFFFF" d="M12.701,18.954c0,1.255,1.932,2.327,4.316,2.457c0.159,0.009,0.319,0.013,0.482,0.013
		s0.323-0.004,0.482-0.013c2.385-0.13,4.316-1.202,4.316-2.457V18.23c-0.835,0.881-2.384,1.494-4.233,1.6
		c-0.186,0.01-0.374,0.016-0.565,0.016c-0.192,0-0.38-0.006-0.566-0.016c-1.85-0.105-3.397-0.719-4.232-1.6V18.954z"/>
	<path fill="#231F20" d="M22.299,18.23v0.724c0,1.255-1.932,2.327-4.316,2.457c-0.159,0.009-0.319,0.013-0.482,0.013
		s-0.323-0.004-0.482-0.013c-2.385-0.13-4.316-1.202-4.316-2.457V18.23c-0.424-0.448-0.664-0.964-0.664-1.519v1.727v0.516
		c0,0.556,0.24,1.071,0.664,1.519c0.835,0.883,2.383,1.495,4.232,1.6c0.187,0.011,0.374,0.016,0.566,0.016
		c0.191,0,0.38-0.005,0.565-0.016c1.85-0.104,3.398-0.717,4.233-1.6c0.424-0.447,0.664-0.963,0.664-1.519v-0.516v-1.727
		C22.963,17.266,22.723,17.783,22.299,18.23z"/>
	<path fill="#FFFFFF" d="M12.701,16.711c0,1.255,1.932,2.328,4.316,2.457c0.159,0.009,0.319,0.014,0.482,0.014
		s0.323-0.005,0.482-0.014c2.385-0.129,4.316-1.201,4.316-2.457v-0.724c-0.919,0.97-2.703,1.615-4.799,1.615
		s-3.88-0.645-4.799-1.615V16.711z"/>
	<path fill="#231F20" d="M22.963,14.468v-0.515h-0.076C22.933,14.121,22.963,14.292,22.963,14.468z"/>
	<path fill="#231F20" d="M12.037,13.953v0.515c0-0.176,0.03-0.347,0.076-0.515H12.037z"/>
	<path fill="#231F20" d="M22.299,15.987v0.724c0,1.255-1.932,2.328-4.316,2.457c-0.159,0.009-0.319,0.014-0.482,0.014
		s-0.323-0.005-0.482-0.014c-2.385-0.129-4.316-1.201-4.316-2.457v-0.724c-0.424-0.448-0.664-0.964-0.664-1.52v1.728v0.516
		c0,0.555,0.24,1.071,0.664,1.519c0.835,0.881,2.383,1.494,4.232,1.6c0.187,0.01,0.374,0.016,0.566,0.016
		c0.191,0,0.38-0.006,0.565-0.016c1.85-0.105,3.398-0.719,4.233-1.6c0.424-0.448,0.664-0.964,0.664-1.519v-0.516v-1.728
		C22.963,15.023,22.723,15.54,22.299,15.987z"/>
	<path fill="#FFFFFF" d="M17.5,11.998c-2.602,0-4.799,1.131-4.799,2.47c0,1.339,2.197,2.471,4.799,2.471s4.799-1.131,4.799-2.471
		C22.299,13.129,20.102,11.998,17.5,11.998z"/>
	<path fill="#231F20" d="M17.5,11.333c-2.756,0-4.969,1.116-5.387,2.619c-0.046,0.168-0.076,0.339-0.076,0.515
		c0,0.555,0.24,1.072,0.664,1.52c0.919,0.97,2.703,1.615,4.799,1.615s3.88-0.645,4.799-1.615c0.424-0.448,0.664-0.964,0.664-1.52
		c0-0.176-0.03-0.347-0.076-0.515C22.469,12.449,20.256,11.333,17.5,11.333z M22.299,14.468c0,1.339-2.197,2.471-4.799,2.471
		s-4.799-1.131-4.799-2.471c0-1.339,2.197-2.47,4.799-2.47S22.299,13.129,22.299,14.468z"/>
</g>
</svg>
