<svg xmlns="http://www.w3.org/2000/svg" width="70" height="70"><path fill="#4400CF" d="M35 0C15.67 0 0 15.67 0 35s15.67 35 35 35 35-15.67 35-35S54.33 0 35 0zm8.233 47.741a15.82 15.82 0 0 1-4.703-.729c2.944-.926 7.135-3.073 10.099-8.079a21.185 21.185 0 0 0 1.945-4.384 23.99 23.99 0 0 1 3.087-.218c3.094 0 5.74.559 7.182.938-1.288 2.438-4.925 8.345-11.137 11.078-2.098.925-4.275 1.394-6.473 1.394zM16.339 34.332c1.065 0 2.087.089 3.087.218a21.338 21.338 0 0 0 1.945 4.383c2.966 5.011 7.162 7.158 10.107 8.084a15.85 15.85 0 0 1-4.712.725c-2.197 0-4.375-.469-6.473-1.393-6.213-2.733-9.85-8.642-11.138-11.08a28.837 28.837 0 0 1 7.184-.937zm4.275-11.984c1.607.614 4.664 1.973 7.576 4.333-.595 1.957-.988 4.102-.988 6.384 0 5.435 2.192 9.276 4.162 11.634-2.509-.938-5.786-2.869-8.147-6.858C19.759 32 20.24 25.082 20.614 22.348zm8.734 10.716c0-6.786 3.939-12.493 5.653-14.655 1.715 2.157 5.651 7.851 5.651 14.655 0 6.982-4.082 10.968-5.648 12.239a15.83 15.83 0 0 1-5.656-12.239zm12.463-6.379c2.911-2.354 5.967-3.718 7.575-4.333.374 2.733.855 9.65-2.603 15.489-2.389 4.034-5.67 5.963-8.174 6.887 1.976-2.353 4.188-6.205 4.188-11.663.001-2.28-.393-4.424-.986-6.38z"/><path fill="#FFF" d="M60.843 35.271a28.91 28.91 0 0 0-7.182-.938c-1.064 0-2.086.089-3.087.218a21.291 21.291 0 0 1-1.945 4.384c-2.964 5.006-7.154 7.153-10.099 8.079a15.82 15.82 0 0 0 4.703.729c2.197 0 4.375-.469 6.473-1.393 6.212-2.735 9.849-8.641 11.137-11.079z"/><path fill="#FFF" d="M46.783 37.841c3.458-5.839 2.977-12.756 2.603-15.489-1.608.615-4.664 1.979-7.575 4.333.594 1.956.987 4.101.987 6.38 0 5.458-2.213 9.311-4.188 11.663 2.503-.924 5.785-2.853 8.173-6.887zm-26.489 8.508c2.098.924 4.275 1.393 6.473 1.393a15.85 15.85 0 0 0 4.712-.725c-2.945-.926-7.142-3.073-10.107-8.084a21.23 21.23 0 0 1-1.945-4.383c-1-.129-2.021-.218-3.087-.218-3.105 0-5.745.557-7.183.937 1.287 2.438 4.924 8.346 11.137 11.08z"/><path fill="#FFF" d="M31.364 44.698c-1.97-2.357-4.162-6.199-4.162-11.634 0-2.282.394-4.427.988-6.384-2.912-2.36-5.969-3.719-7.576-4.333-.374 2.735-.855 9.653 2.603 15.493 2.361 3.989 5.638 5.921 8.147 6.858z"/><path fill="#FFF" d="M40.652 33.064c0-6.805-3.937-12.498-5.651-14.655-1.714 2.162-5.653 7.869-5.653 14.655a15.83 15.83 0 0 0 5.656 12.239c1.566-1.271 5.648-5.256 5.648-12.239z"/></svg>