<?xml version="1.0" encoding="utf-8"?>
<!-- Generator: Adobe Illustrator 16.0.0, SVG Export Plug-In . SVG Version: 6.00 Build 0)  -->
<!DOCTYPE svg PUBLIC "-//W3C//DTD SVG 1.1//EN" "http://www.w3.org/Graphics/SVG/1.1/DTD/svg11.dtd">
<svg version="1.1" id="Warstwa_1" xmlns="http://www.w3.org/2000/svg" xmlns:xlink="http://www.w3.org/1999/xlink" x="0px" y="0px"
	 width="35px" height="35px" viewBox="0 0 35 35" enable-background="new 0 0 35 35" xml:space="preserve">
<g>
	<circle fill="#231F20" cx="17.5" cy="17.5" r="17.5"/>
	<g>
		<path fill="#FFFFFF" d="M20.682,22.68l-0.071,2.21c-1.103,0.49-2.275,0.736-3.521,0.736c-1.605,0-3-0.351-4.186-1.051
			s-2.066-1.607-2.641-2.722c-0.575-1.113-0.862-2.347-0.862-3.7c0-1.545,0.389-2.971,1.167-4.275
			c0.778-1.305,1.826-2.329,3.144-3.072c1.317-0.742,2.749-1.114,4.293-1.114c1.342,0,2.584,0.276,3.728,0.826
			c1.145,0.551,2.075,1.374,2.794,2.47c0.719,1.096,1.077,2.356,1.077,3.781c0,1.413-0.355,2.596-1.068,3.548
			s-1.571,1.429-2.578,1.429c-1.413,0-2.329-0.653-2.748-1.958c-0.239,0.635-0.602,1.117-1.087,1.446
			c-0.485,0.329-1.033,0.493-1.644,0.493c-0.97,0-1.736-0.368-2.299-1.104s-0.844-1.638-0.844-2.703c0-1.246,0.365-2.249,1.096-3.01
			c0.73-0.76,1.592-1.14,2.587-1.14c0.97,0,1.688,0.437,2.155,1.311c0.048-0.586,0.078-1.012,0.09-1.275h2.084l-0.018,0.359
			c-0.145,2.156-0.216,3.359-0.216,3.611c0,1.293,0.305,1.939,0.916,1.939c0.419,0,0.761-0.248,1.023-0.745
			c0.264-0.497,0.396-1.171,0.396-2.021c0-1.7-0.518-2.981-1.554-3.844s-2.362-1.293-3.979-1.293c-1.234,0-2.333,0.309-3.297,0.925
			s-1.691,1.41-2.183,2.38c-0.491,0.971-0.736,2.006-0.736,3.107c0,1.617,0.515,2.901,1.545,3.854
			c1.03,0.952,2.305,1.428,3.826,1.428C18.329,23.506,19.532,23.23,20.682,22.68z M17.233,19.859c0.395,0,0.763-0.152,1.105-0.458
			c0.341-0.306,0.571-0.745,0.691-1.32c0-0.071,0.003-0.191,0.009-0.359c0.006-0.167,0.009-0.287,0.009-0.358
			c-0.071-0.563-0.257-0.991-0.557-1.285c-0.3-0.293-0.646-0.44-1.042-0.44c-0.503,0-0.932,0.21-1.285,0.63
			c-0.354,0.419-0.53,1.006-0.53,1.76c0,0.551,0.159,0.994,0.476,1.329C16.427,19.692,16.802,19.859,17.233,19.859z"/>
	</g>
</g>
</svg>
