<svg xmlns="http://www.w3.org/2000/svg" width="35" height="35"><circle fill="#231F20" cx="17.5" cy="17.5" r="17.5"/><path fill="#FFF" d="M20.682 22.68l-.071 2.21a8.57 8.57 0 0 1-3.521.736c-1.605 0-3-.351-4.186-1.051s-2.066-1.607-2.641-2.722c-.575-1.113-.862-2.347-.862-3.7 0-1.545.389-2.971 1.167-4.275a8.41 8.41 0 0 1 3.144-3.072 8.603 8.603 0 0 1 4.293-1.114c1.342 0 2.584.276 3.728.826 1.145.551 2.075 1.374 2.794 2.47.719 1.096 1.077 2.356 1.077 3.781 0 1.413-.355 2.596-1.068 3.548s-1.571 1.429-2.578 1.429c-1.413 0-2.329-.653-2.748-1.958-.239.635-.602 1.117-1.087 1.446a2.86 2.86 0 0 1-1.644.493c-.97 0-1.736-.368-2.299-1.104s-.844-1.638-.844-2.703c0-1.246.365-2.249 1.096-3.01.73-.76 1.592-1.14 2.587-1.14.97 0 1.688.437 2.155 1.311a39.86 39.86 0 0 0 .09-1.275h2.084l-.018.359c-.145 2.156-.216 3.359-.216 3.611 0 1.293.305 1.939.916 1.939.419 0 .761-.248 1.023-.745.264-.497.396-1.171.396-2.021 0-1.7-.518-2.981-1.554-3.844s-2.362-1.293-3.979-1.293c-1.234 0-2.333.309-3.297.925s-1.691 1.41-2.183 2.38a6.788 6.788 0 0 0-.736 3.107c0 1.617.515 2.901 1.545 3.854 1.03.952 2.305 1.428 3.826 1.428a8.27 8.27 0 0 0 3.611-.826zm-3.449-2.821c.395 0 .763-.152 1.105-.458.341-.306.571-.745.691-1.32 0-.071.003-.191.009-.359.006-.167.009-.287.009-.358-.071-.563-.257-.991-.557-1.285-.3-.293-.646-.44-1.042-.44-.503 0-.932.21-1.285.63-.354.419-.53 1.006-.53 1.76 0 .551.159.994.476 1.329.318.334.693.501 1.124.501z"/></svg>