<?xml version="1.0" encoding="utf-8"?>
<!-- Generator: Adobe Illustrator 16.0.0, SVG Export Plug-In . SVG Version: 6.00 Build 0)  -->
<!DOCTYPE svg PUBLIC "-//W3C//DTD SVG 1.1//EN" "http://www.w3.org/Graphics/SVG/1.1/DTD/svg11.dtd">
<svg version="1.1" id="Warstwa_1" xmlns="http://www.w3.org/2000/svg" xmlns:xlink="http://www.w3.org/1999/xlink" x="0px" y="0px"
	 width="35px" height="35px" viewBox="0 0 35 35" enable-background="new 0 0 35 35" xml:space="preserve">
<path fill="#231F20" d="M17.5,0C7.834,0,0,7.835,0,17.5S7.834,35,17.5,35C27.165,35,35,27.165,35,17.5S27.165,0,17.5,0z
	 M23.531,7.704l-0.006,3.255h-1.09l0.006-3.255H23.531z M12.563,7.704l-0.004,3.255h-1.09l0.004-3.255H12.563z M8.662,10.639
	c0-0.551,0.446-0.997,0.997-0.997h0.814v1.349c0,0.532,0.388,0.964,0.864,0.964h1.359c0.476,0,0.864-0.433,0.864-0.964V9.642h7.881
	v1.349c0,0.532,0.388,0.964,0.863,0.964h1.358c0.478,0,0.864-0.433,0.864-0.964V9.642h0.813c0.55,0,0.996,0.446,0.996,0.997v3.666
	H8.662V10.639z M26.338,25.453c0,0.55-0.445,0.996-0.996,0.996H9.658c-0.55,0-0.997-0.446-0.997-0.996V15.301h17.676L26.338,25.453
	L26.338,25.453z"/>
<path fill="#FFFFFF" d="M26.338,10.639c0-0.551-0.445-0.997-0.996-0.997h-0.814v1.349c0,0.532-0.387,0.964-0.863,0.964h-1.357
	c-0.478,0-0.865-0.433-0.865-0.964V9.642h-7.88v1.349c0,0.532-0.388,0.964-0.864,0.964h-1.359c-0.476,0-0.864-0.433-0.864-0.964
	V9.642H9.658c-0.55,0-0.997,0.446-0.997,0.997v3.666h17.676L26.338,10.639L26.338,10.639z"/>
<rect x="11.471" y="7.704" fill="#FFFFFF" width="1.089" height="3.255"/>
<rect x="22.439" y="7.704" fill="#FFFFFF" width="1.09" height="3.255"/>
<rect x="10.748" y="17.612" fill="#231F20" width="1.903" height="1.443"/>
<rect x="14.662" y="17.612" fill="#231F20" width="1.903" height="1.443"/>
<rect x="18.575" y="17.612" fill="#231F20" width="1.903" height="1.443"/>
<rect x="22.488" y="17.612" fill="#231F20" width="1.904" height="1.443"/>
<rect x="10.748" y="20.497" fill="#231F20" width="1.903" height="1.442"/>
<rect x="14.662" y="20.497" fill="#231F20" width="1.903" height="1.442"/>
<rect x="18.575" y="20.497" fill="#231F20" width="1.903" height="1.442"/>
<rect x="22.488" y="20.497" fill="#231F20" width="1.904" height="1.442"/>
<rect x="10.748" y="23.326" fill="#231F20" width="1.903" height="1.441"/>
<rect x="14.662" y="23.326" fill="#231F20" width="1.903" height="1.443"/>
<rect x="18.575" y="23.327" fill="#231F20" width="1.903" height="1.442"/>
</svg>
