<?xml version="1.0" encoding="utf-8"?>
<!-- Generator: Adobe Illustrator 16.0.0, SVG Export Plug-In . SVG Version: 6.00 Build 0)  -->
<!DOCTYPE svg PUBLIC "-//W3C//DTD SVG 1.1//EN" "http://www.w3.org/Graphics/SVG/1.1/DTD/svg11.dtd">
<svg version="1.1" id="Warstwa_1" xmlns="http://www.w3.org/2000/svg" xmlns:xlink="http://www.w3.org/1999/xlink" x="0px" y="0px"
	 width="35px" height="35px" viewBox="0 0 35 35" enable-background="new 0 0 35 35" xml:space="preserve">
<rect x="21.356" y="8.787" transform="matrix(0.0018 -1 1 0.0018 13.6105 32.2981)" fill="#231F20" width="3.255" height="1.09"/>
<rect x="11.471" y="7.704" fill="#231F20" width="1.09" height="3.255"/>
<path fill="#231F20" d="M8.662,10.639c0-0.551,0.446-0.997,0.997-0.997h0.814v1.349c0,0.532,0.388,0.964,0.864,0.964h1.359
	c0.476,0,0.864-0.433,0.864-0.964V9.642h7.881v1.349c0,0.532,0.388,0.964,0.863,0.964h1.358c0.478,0,0.864-0.433,0.864-0.964V9.642
	h0.813c0.55,0,0.996,0.446,0.996,0.997v3.666H8.662V10.639z"/>
<path fill="#231F20" d="M26.338,25.453c0,0.55-0.445,0.996-0.996,0.996H9.658c-0.55,0-0.997-0.446-0.997-0.996V15.301h17.676
	L26.338,25.453L26.338,25.453z"/>
<rect x="11.471" y="7.704" fill="#231F20" width="1.089" height="3.255"/>
<rect x="22.439" y="7.704" fill="#231F20" width="1.09" height="3.255"/>
<rect x="10.748" y="17.612" fill="#FFFFFF" width="1.903" height="1.443"/>
<rect x="14.662" y="17.612" fill="#FFFFFF" width="1.903" height="1.443"/>
<rect x="18.575" y="17.612" fill="#FFFFFF" width="1.903" height="1.443"/>
<rect x="22.488" y="17.612" fill="#FFFFFF" width="1.904" height="1.443"/>
<rect x="10.748" y="20.497" fill="#FFFFFF" width="1.903" height="1.442"/>
<rect x="14.662" y="20.497" fill="#FFFFFF" width="1.903" height="1.442"/>
<rect x="18.575" y="20.497" fill="#FFFFFF" width="1.903" height="1.442"/>
<rect x="22.488" y="20.497" fill="#FFFFFF" width="1.904" height="1.442"/>
<rect x="10.748" y="23.326" fill="#FFFFFF" width="1.903" height="1.441"/>
<rect x="14.662" y="23.326" fill="#FFFFFF" width="1.903" height="1.443"/>
<rect x="18.575" y="23.327" fill="#FFFFFF" width="1.903" height="1.442"/>
</svg>
