<svg xmlns="http://www.w3.org/2000/svg" width="35" height="35"><path fill="#231F20" d="M17.5 0C7.834 0 0 7.835 0 17.5S7.834 35 17.5 35C27.165 35 35 27.165 35 17.5S27.165 0 17.5 0zm6.031 7.704l-.006 3.255h-1.09l.006-3.255h1.09zm-10.968 0l-.004 3.255h-1.09l.004-3.255h1.09zm-3.901 2.935c0-.551.446-.997.997-.997h.814v1.349c0 .532.388.964.864.964h1.359c.476 0 .864-.433.864-.964V9.642h7.881v1.349c0 .532.388.964.863.964h1.358c.478 0 .864-.433.864-.964V9.642h.813c.55 0 .996.446.996.997v3.666H8.662v-3.666zm17.676 14.814c0 .55-.445.996-.996.996H9.658a.997.997 0 0 1-.997-.996V15.301h17.676l.001 10.152z"/><path fill="#FFF" d="M26.338 10.639a.996.996 0 0 0-.996-.997h-.814v1.349c0 .532-.387.964-.863.964h-1.357c-.478 0-.865-.433-.865-.964V9.642h-7.88v1.349c0 .532-.388.964-.864.964H11.34c-.476 0-.864-.433-.864-.964V9.642h-.818a.997.997 0 0 0-.997.997v3.666h17.676l.001-3.666z"/><path fill="#FFF" d="M11.471 7.704h1.089v3.255h-1.089zm10.968 0h1.09v3.255h-1.09z"/><path fill="#231F20" d="M10.748 17.612h1.903v1.443h-1.903zm3.914 0h1.903v1.443h-1.903zm3.913 0h1.903v1.443h-1.903zm3.913 0h1.904v1.443h-1.904zm-11.74 2.885h1.903v1.442h-1.903zm3.914 0h1.903v1.442h-1.903zm3.913 0h1.903v1.442h-1.903zm3.913 0h1.904v1.442h-1.904zm-11.74 2.829h1.903v1.441h-1.903zm3.914 0h1.903v1.443h-1.903zm3.913.001h1.903v1.442h-1.903z"/></svg>