<svg xmlns="http://www.w3.org/2000/svg" width="35" height="35"><path fill="#231F20" d="M17.5 0C7.834 0 0 7.835 0 17.5S7.834 35 17.5 35C27.165 35 35 27.165 35 17.5S27.165 0 17.5 0zm4.799 21.196c0 1.34-2.197 2.471-4.799 2.471s-4.799-1.131-4.799-2.471v-.724c.834.882 2.384 1.495 4.232 1.6a9.598 9.598 0 0 0 1.132 0c1.849-.104 3.397-.718 4.232-1.6v.724zm0-2.242c0 1.255-1.932 2.327-4.316 2.457a9.595 9.595 0 0 1-.964 0c-2.385-.13-4.316-1.202-4.316-2.457v-.724c.834.881 2.384 1.494 4.232 1.599a9.598 9.598 0 0 0 1.132 0c1.849-.104 3.397-.718 4.232-1.599v.724zm0-2.243c0 1.255-1.932 2.328-4.316 2.457a8.539 8.539 0 0 1-.964 0c-2.385-.129-4.316-1.202-4.316-2.457v-.724c.918.97 2.703 1.615 4.799 1.615s3.88-.646 4.799-1.615v.724zM17.5 11.998c2.602 0 4.799 1.131 4.799 2.47 0 1.339-2.197 2.47-4.799 2.47s-4.799-1.131-4.799-2.47c0-1.34 2.197-2.47 4.799-2.47z"/><path fill="#FFF" d="M17.5 22.088c-.191 0-.381-.005-.566-.016-1.849-.104-3.398-.718-4.232-1.6v.724c0 1.34 2.197 2.471 4.799 2.471s4.799-1.131 4.799-2.471v-.724c-.835.882-2.384 1.495-4.232 1.6a9.715 9.715 0 0 1-.568.016z"/><path fill="#FFF" d="M17.5 19.845c-.191 0-.381-.005-.566-.016-1.849-.104-3.398-.718-4.232-1.599v.724c0 1.255 1.932 2.327 4.316 2.457a9.563 9.563 0 0 0 .964 0c2.385-.13 4.316-1.202 4.316-2.457v-.724c-.835.881-2.384 1.494-4.232 1.599a9.598 9.598 0 0 1-.566.016z"/><path fill="#FFF" d="M12.701 15.987v.724c0 1.255 1.932 2.328 4.316 2.457a8.513 8.513 0 0 0 .964 0c2.385-.129 4.316-1.202 4.316-2.457v-.724c-.919.97-2.703 1.615-4.799 1.615s-3.879-.645-4.797-1.615z"/><path fill="#FFF" d="M17.5 16.938c2.602 0 4.799-1.131 4.799-2.47 0-1.339-2.197-2.47-4.799-2.47s-4.799 1.131-4.799 2.47c0 1.339 2.197 2.47 4.799 2.47z"/></svg>