<svg xmlns="http://www.w3.org/2000/svg" width="35" height="35"><path d="M17.5 23.421c-.251 0-.5-.007-.744-.021-2.428-.138-4.463-.943-5.558-2.101v.95c0 1.759 2.885 3.244 6.302 3.244 3.416 0 6.302-1.485 6.302-3.244V21.3c-1.097 1.157-3.131 1.963-5.558 2.101-.245.013-.493.02-.744.02z"/><path d="M17.5 19.475c-.251 0-.5-.006-.744-.021-2.428-.137-4.463-.942-5.558-2.099v.95c0 1.647 2.537 3.056 5.668 3.227.209.01.419.017.633.017.213 0 .424-.007.634-.017 3.131-.171 5.668-1.579 5.668-3.227v-.95c-1.097 1.156-3.131 1.962-5.558 2.099-.244.015-.492.021-.743.021z"/><path d="M11.198 13.41v.95c0 1.648 2.537 3.057 5.668 3.226a11.02 11.02 0 0 0 1.267 0c3.131-.169 5.668-1.578 5.668-3.226v-.95c-1.207 1.273-3.55 2.121-6.302 2.121s-5.095-.848-6.301-2.121z"/><path d="M17.5 13.657c3.416 0 6.302-1.485 6.302-3.243 0-1.759-2.886-3.244-6.302-3.244-3.417 0-6.302 1.485-6.302 3.244 0 1.758 2.885 3.243 6.302 3.243z"/></svg>