<svg xmlns="http://www.w3.org/2000/svg" width="79.548" height="79.608"><path d="M65.715 22.426c0 11.132-5.685 22.269-20.132 22.269-2.371 0-4.741-.474-5.686-.713l.237-1.656s1.42.235 2.368.235c14.688 0 13.977-13.973 13.977-24.869V4.19C51.502 1.821 45.583.398 39.897.398 18.34.398.339 18.166.339 39.956c0 20.607 15.633 37.664 36.242 39.557 2.843-1.893 4.498-4.023 4.498-8.054 0-10.896-27.712-14.921-27.712-29.606 0-8.294 7.816-15.161 17.293-15.161 2.841 0 5.211.473 7.341 1.421l-.474 1.661c-2.369-.713-4.263-.95-6.63-.95-3.792 0-9.951 3.079-9.951 9.001 0 12.555 27.479 13.739 27.479 30.081 0 5.212-2.372 9.238-6.87 11.606 21.081-.473 38.134-18 38.134-39.557 0-12.082-5.686-23.214-13.974-30.083v12.554z"/></svg>