<?xml version="1.0" encoding="utf-8"?>
<!-- Generator: Adobe Illustrator 16.0.0, SVG Export Plug-In . SVG Version: 6.00 Build 0)  -->
<!DOCTYPE svg PUBLIC "-//W3C//DTD SVG 1.1//EN" "http://www.w3.org/Graphics/SVG/1.1/DTD/svg11.dtd">
<svg version="1.1" id="Warstwa_1" xmlns="http://www.w3.org/2000/svg" xmlns:xlink="http://www.w3.org/1999/xlink" x="0px" y="0px"
	 width="79.548px" height="79.608px" viewBox="0 0 79.548 79.608" enable-background="new 0 0 79.548 79.608" xml:space="preserve">
<path d="M65.715,22.426c0,11.132-5.685,22.269-20.132,22.269c-2.371,0-4.741-0.474-5.686-0.713l0.237-1.656
	c0,0,1.42,0.235,2.368,0.235c14.688,0,13.977-13.973,13.977-24.869V4.19c-4.977-2.369-10.896-3.792-16.582-3.792
	c-21.557,0-39.558,17.768-39.558,39.558c0,20.607,15.633,37.664,36.242,39.557c2.843-1.893,4.498-4.023,4.498-8.054
	c0-10.896-27.712-14.921-27.712-29.606c0-8.294,7.816-15.161,17.293-15.161c2.841,0,5.211,0.473,7.341,1.421l-0.474,1.661
	c-2.369-0.713-4.263-0.95-6.63-0.95c-3.792,0-9.951,3.079-9.951,9.001c0,12.555,27.479,13.739,27.479,30.081
	c0,5.212-2.372,9.238-6.87,11.606c21.081-0.473,38.134-18,38.134-39.557c0-12.082-5.686-23.214-13.974-30.083V22.426z"/>
</svg>
