<?xml version="1.0" encoding="utf-8"?>
<!-- Generator: Adobe Illustrator 22.1.0, SVG Export Plug-In . SVG Version: 6.00 Build 0)  -->
<svg version="1.1" xmlns="http://www.w3.org/2000/svg" xmlns:xlink="http://www.w3.org/1999/xlink" x="0px" y="0px"
	 viewBox="0 0 144.4 59" style="enable-background:new 0 0 144.4 59;" xml:space="preserve">
<style type="text/css">
	.st0{display:none;}
	.st1{display:inline;}
	.st2{fill:none;stroke:#000000;stroke-width:0.25;stroke-miterlimit:10;}
</style>
<g id="Warstwa_1">
	<path d="M41.8,20.2c0,5.6-2.9,11.2-10.1,11.2c-1.2,0-2.4-0.2-2.9-0.4l0.1-0.8c0,0,0.7,0.1,1.2,0.1c7.4,0,7-7,7-12.5v-6.8
		c-2.5-1.2-5.5-1.9-8.3-1.9C18,9.2,9,18.1,9,29C9,39.4,16.8,48,27.2,48.9c1.4-1,2.3-2,2.3-4c0-5.5-13.9-7.5-13.9-14.9
		c0-4.2,3.9-7.6,8.7-7.6c1.4,0,2.6,0.2,3.7,0.7l-0.2,0.8c-1.2-0.4-2.1-0.5-3.3-0.5c-1.9,0-5,1.5-5,4.5c0,6.3,13.8,6.9,13.8,15.1
		c0,2.6-1.2,4.6-3.5,5.8c10.6-0.2,19.2-9,19.2-19.9c0-6.1-2.9-11.7-7-15.1V20.2z"/>
	<path d="M64.5,19.3c-0.8-0.3-1.4-0.4-2.1-0.4c-1.1,0-1.8,0.5-1.8,1.2c0,0.6,0.3,1,1.8,1.6c1.9,0.7,2.7,1.5,2.7,3.1
		c0,2-1.5,3.2-3.8,3.2c-1,0-1.9-0.1-2.7-0.4l0.2-1.8c0.9,0.4,1.7,0.6,2.4,0.6c1.1,0,1.9-0.5,1.9-1.3c0-0.8-0.4-1.2-2-1.8
		c-1.8-0.7-2.6-1.5-2.6-2.9c0-1.8,1.5-3,3.7-3c0.9,0,1.7,0.1,2.5,0.4L64.5,19.3z"/>
	<path d="M65.9,21.6v-1.4h1.5v-1.6l1.8-0.6v2.2H71v1.4h-1.8v2.9c0,1.1,0.2,1.7,1.2,1.7c0.2,0,0.5,0,0.7-0.1l0,1.5
		c-0.4,0.1-0.8,0.2-1.3,0.2c-1.7,0-2.5-0.8-2.5-2.8v-3.3H65.9z"/>
	<path d="M77.9,26.4c-0.5,0.8-1.3,1.4-2.6,1.4c-1.6,0-2.6-1.2-2.6-2.9v-4.8h1.9V24c0,1.3,0.3,2.2,1.4,2.2c1.1,0,1.8-1,1.8-2.3v-3.8
		h1.9v5.3c0,0.8,0,1.6,0.1,2.2h-1.8C77.9,27.4,77.9,26.9,77.9,26.4L77.9,26.4z"/>
	<path d="M89,25.4c0,0.8,0,1.6,0.1,2.3h-1.8c0-0.4,0-0.8,0-1.3h0c-0.5,1-1.3,1.5-2.5,1.5c-2,0-3.3-1.6-3.3-3.9
		c0-2.3,1.3-3.9,3.3-3.9c1.1,0,1.9,0.5,2.4,1.3h0c0-0.6,0-1.4,0-2.1v-2.6H89V25.4z M83.5,23.9c0,1.4,0.7,2.4,1.8,2.4
		c1.1,0,1.9-1,1.9-2.4c0-1.4-0.7-2.5-1.9-2.5C84.2,21.5,83.5,22.5,83.5,23.9z"/>
	<path d="M92.2,18.8c-0.6,0-1.1-0.5-1.1-1.1c0-0.6,0.5-1.1,1.1-1.1c0.6,0,1.1,0.5,1.1,1.1C93.3,18.4,92.8,18.8,92.2,18.8z"/>
	<rect x="91.2" y="20.1" width="2" height="7.5"/>
	<path d="M102.8,23.9c0,2.4-1.6,3.9-4,3.9c-2.3,0-4-1.6-4-3.9c0-2.4,1.6-3.9,4-3.9C101.2,20,102.8,21.5,102.8,23.9z M97,23.9
		c0,1.5,0.7,2.4,1.9,2.4c1.2,0,1.9-1,1.9-2.5c0-1.5-0.7-2.4-1.9-2.4C97.7,21.4,97,22.3,97,23.9z"/>
	<path d="M111.8,17.5v7c0,2.1-0.8,3.3-3,3.3c-0.4,0-0.9-0.1-1.4-0.2l0.1-1.8c0.3,0.1,0.7,0.1,1,0.1c0.9,0,1.3-0.5,1.3-1.7v-6.8
		H111.8z"/>
	<path d="M121.4,23.9c0,2.4-1.6,3.9-4,3.9c-2.3,0-4-1.6-4-3.9c0-2.4,1.6-3.9,4-3.9C119.8,20,121.4,21.5,121.4,23.9z M115.6,23.9
		c0,1.5,0.7,2.4,1.9,2.4c1.2,0,1.9-1,1.9-2.5c0-1.5-0.7-2.4-1.9-2.4C116.3,21.4,115.6,22.3,115.6,23.9z"/>
	<path d="M130.1,20.1v6.9c0,2.3-1.2,3.8-4,3.8c-1,0-2-0.1-3-0.5l0.1-1.7c0.9,0.5,1.8,0.7,2.7,0.7c1.3,0,2.2-0.7,2.2-2.4
		c0-0.2,0-0.5,0-0.8h0c-0.5,0.8-1.2,1.4-2.4,1.4c-2,0-3.2-1.5-3.2-3.7c0-2.3,1.3-4,3.4-4c1.2,0,1.9,0.6,2.4,1.4h0c0-0.5,0-0.8,0-1.2
		H130.1z M124.6,23.8c0,1.3,0.7,2.3,1.8,2.3c1.1,0,1.9-1,1.9-2.3c0-1.3-0.7-2.4-1.9-2.4C125.3,21.5,124.6,22.5,124.6,23.8z"/>
	<path d="M133,18.8c-0.6,0-1.1-0.5-1.1-1.1c0-0.6,0.5-1.1,1.1-1.1c0.6,0,1.1,0.5,1.1,1.1C134.1,18.4,133.6,18.8,133,18.8z"/>
	<rect x="132" y="20.1" width="2" height="7.5"/>
	<path d="M60.3,42.5h-0.7V35h0.7v3.4h0c0.5-0.6,1.2-1.3,1.5-1.6l1.8-1.9h1l-3.6,3.5l3.9,4h-1.1L61.5,40c-0.2-0.3-0.7-0.8-1.2-1.3h0
		V42.5z"/>
	<path d="M66,37.4c0.5-0.3,1.2-0.5,1.7-0.5c1.4,0,2,0.9,2,2.1c0,0.7,0,1.5,0,1.8c0,0.6,0,1.2,0.1,1.6h-0.6c0-0.1,0-0.3,0-0.5
		c0-0.1,0-0.4,0-0.5h0c-0.3,0.6-1,1.1-1.8,1.1c-1.1,0-1.8-0.6-1.8-1.6c0-1.2,1-1.8,2.9-1.8c0.2,0,0.5,0,0.8,0v-0.2
		c0-0.9-0.4-1.6-1.4-1.6c-0.5,0-1.1,0.2-1.6,0.5L66,37.4z M68.4,39.8c-1.5,0-2.3,0.4-2.3,1.2c0,0.6,0.5,1,1.2,1
		c1.1,0,1.7-0.7,1.7-2.2C68.9,39.8,68.7,39.8,68.4,39.8z"/>
	<path d="M72.7,37.1h1.4v0.6h-1.4v3c0,0.9,0.3,1.3,0.9,1.3c0.2,0,0.4,0,0.6-0.1l0,0.6c-0.2,0.1-0.5,0.1-0.7,0.1
		c-1.2,0-1.5-0.7-1.5-1.7v-3.1h-1.2v-0.6H72v-1.2l0.7-0.2V37.1z"/>
	<path d="M75.6,37.4c0.5-0.3,1.2-0.5,1.7-0.5c1.4,0,2,0.9,2,2.1c0,0.7,0,1.5,0,1.8c0,0.6,0,1.2,0.1,1.6h-0.6c0-0.1,0-0.3,0-0.5
		c0-0.1,0-0.4,0-0.5h0c-0.3,0.6-1,1.1-1.8,1.1C75.8,42.6,75,42,75,41c0-1.2,1-1.8,2.9-1.8c0.2,0,0.5,0,0.8,0v-0.2
		c0-0.9-0.4-1.6-1.4-1.6c-0.5,0-1.1,0.2-1.6,0.5L75.6,37.4z M78,39.8c-1.5,0-2.3,0.4-2.3,1.2c0,0.6,0.5,1,1.2,1
		c1.1,0,1.7-0.7,1.7-2.2C78.5,39.8,78.3,39.8,78,39.8z"/>
	<path d="M82.1,38.1c0.2-0.7,0.8-1.2,1.5-1.2c0.2,0,0.3,0,0.4,0.1l0,0.6c-0.1,0-0.3-0.1-0.4-0.1c-0.9,0-1.5,0.9-1.5,2.1v2.8h-0.7
		v-3.8c0-0.6,0-1.2-0.1-1.6H82C82,37.4,82,37.8,82.1,38.1L82.1,38.1z"/>
	<path d="M85.4,41.9h3.4v0.6h-4.2v-0.6c2.5-3.2,3.1-4,3.4-4.3h-3.2v-0.6h4v0.6C86.6,40.5,85.7,41.6,85.4,41.9z"/>
	<path d="M91.4,40.7c0.1,0.3,0.3,0.9,0.4,1.3h0c0.1-0.4,0.3-1,0.4-1.3l1.2-3.6h0.7l-2.1,5.9c-0.5,1.3-0.8,2-1.9,2
		c-0.2,0-0.4,0-0.6-0.1l0.1-0.6c0.1,0,0.3,0.1,0.5,0.1c0.6,0,0.9-0.3,1.3-1.6l-2-5.6h0.8L91.4,40.7z"/>
	<path d="M95.9,38.1c0.4-0.7,1-1.1,1.9-1.1c1.5,0,1.9,1,1.9,2.4v3.1H99v-2.9c0-1.3-0.3-2.1-1.3-2.1c-1,0-1.7,0.7-1.7,2.2v2.7h-0.7
		v-3.8c0-0.6,0-1.2-0.1-1.6h0.7C95.9,37.3,95.9,37.8,95.9,38.1L95.9,38.1z"/>
	<path d="M102.8,40.7c0.1,0.3,0.3,0.9,0.4,1.3h0c0.1-0.4,0.3-1,0.4-1.3l1.2-3.6h0.7l-2.1,5.9c-0.5,1.3-0.8,2-1.9,2
		c-0.1,0-0.4,0-0.6-0.1l0.1-0.6c0.1,0,0.3,0.1,0.5,0.1c0.6,0,0.9-0.3,1.3-1.6l-2-5.6h0.8L102.8,40.7z"/>
	<path d="M111.4,35c1.7,0,2.7,0.7,2.7,2.2c0,1.5-1.2,2.1-2.8,2.1h-0.8v3.2h-0.7V35H111.4z M110.5,38.7h0.8c1.3,0,2-0.4,2-1.5
		c0-1.1-0.7-1.5-2.1-1.5h-0.8V38.7z"/>
	<g>
		<ellipse cx="115.8" cy="35.4" rx="0.5" ry="0.5"/>
	</g>
	<rect x="115.4" y="37.1" width="0.7" height="5.4"/>
	<path d="M118.8,42.5h-0.7v-8.1h0.7V42.5z"/>
	<path d="M125.6,39.8c0,1.7-1.1,2.8-2.6,2.8c-1.5,0-2.6-1.2-2.6-2.8c0-1.7,1.1-2.9,2.7-2.9C124.5,37,125.6,38.1,125.6,39.8z
		 M121.1,39.8c0,1.3,0.7,2.2,1.9,2.2c1.1,0,1.9-0.9,1.9-2.2s-0.7-2.2-1.9-2.2C121.9,37.5,121.1,38.4,121.1,39.8z"/>
	<path d="M127.9,38.1c0.2-0.7,0.8-1.2,1.5-1.2c0.2,0,0.3,0,0.4,0.1l0,0.6c-0.1,0-0.3-0.1-0.4-0.1c-0.9,0-1.5,0.9-1.5,2.1v2.8h-0.7
		v-3.8c0-0.6,0-1.2-0.1-1.6h0.7C127.8,37.4,127.8,37.8,127.9,38.1L127.9,38.1z"/>
	<path d="M131.3,41.9h3.4v0.6h-4.1v-0.6c2.5-3.2,3.1-4,3.4-4.3h-3.2v-0.6h4v0.6C132.4,40.5,131.6,41.6,131.3,41.9z"/>
</g>
<g id="grid" class="st0">
	<g class="st1">
		<rect x="-11.1" y="-10.8" class="st2" width="158.6" height="79.7"/>
		<line class="st2" x1="-11.1" y1="68.9" x2="147.5" y2="68.9"/>
		<line class="st2" x1="-11.1" y1="49" x2="147.5" y2="49"/>
		<line class="st2" x1="-11.1" y1="29" x2="147.5" y2="29"/>
		<line class="st2" x1="-11.1" y1="9.1" x2="147.5" y2="9.1"/>
		<line class="st2" x1="-11.1" y1="-10.8" x2="147.5" y2="-10.8"/>
		<line class="st2" x1="127.7" y1="-10.8" x2="127.7" y2="68.9"/>
		<line class="st2" x1="107.9" y1="-10.8" x2="107.9" y2="68.9"/>
		<line class="st2" x1="88" y1="-10.8" x2="88" y2="68.9"/>
		<line class="st2" x1="68.2" y1="-10.8" x2="68.2" y2="68.9"/>
		<line class="st2" x1="48.4" y1="-10.8" x2="48.4" y2="68.9"/>
		<line class="st2" x1="28.6" y1="-10.8" x2="28.6" y2="68.9"/>
		<line class="st2" x1="8.8" y1="-10.8" x2="8.8" y2="68.9"/>
	</g>
</g>
</svg>
